<svg xmlns="http://www.w3.org/2000/svg" xmlns:xlink="http://www.w3.org/1999/xlink" width="647" zoomAndPan="magnify" viewBox="0 0 485.25 233.249991" height="311" preserveAspectRatio="xMidYMid meet" version="1.2"><g id="6a0b092fbd"><path style=" stroke:none;fill-rule:nonzero;fill:#ffffff;fill-opacity:1;" d="M 26.304688 155.769531 C 26.023438 155.125 25.125 154.480469 23.601562 153.828125 C 22.074219 153.183594 20.148438 152.859375 17.824219 152.859375 C 14.335938 152.859375 11.648438 153.671875 9.757812 155.300781 C 7.878906 156.929688 6.929688 159.273438 6.929688 162.308594 C 6.929688 164.574219 7.523438 166.375 8.714844 167.699219 C 9.90625 169.027344 11.375 170.121094 13.121094 170.972656 C 14.867188 171.832031 16.75 172.585938 18.773438 173.253906 C 20.792969 173.921875 22.652344 174.757812 24.339844 175.789062 C 26.03125 176.808594 27.386719 178.128906 28.414062 179.726562 C 29.4375 181.335938 29.867188 183.488281 29.703125 186.199219 C 29.539062 188.800781 28.894531 190.925781 27.792969 192.582031 C 26.679688 194.242188 25.3125 195.539062 23.683594 196.480469 C 22.046875 197.421875 20.261719 198.070312 18.320312 198.425781 C 16.378906 198.78125 14.5 198.96875 12.667969 198.96875 C 11.226562 198.96875 9.929688 198.855469 8.765625 198.632812 C 7.605469 198.414062 6.605469 198.167969 5.773438 197.886719 C 4.773438 197.613281 3.894531 197.25 3.117188 196.804688 L 3.613281 193.398438 C 3.886719 193.992188 4.855469 194.648438 6.523438 195.382812 C 8.179688 196.109375 10.453125 196.472656 13.335938 196.472656 C 14.832031 196.472656 16.285156 196.316406 17.699219 196.011719 C 19.113281 195.710938 20.386719 195.199219 21.519531 194.480469 C 22.652344 193.761719 23.585938 192.792969 24.304688 191.578125 C 25.023438 190.363281 25.4375 188.835938 25.546875 187.015625 C 25.710938 184.578125 25.28125 182.675781 24.257812 181.289062 C 23.230469 179.90625 21.890625 178.773438 20.230469 177.890625 C 18.570312 177.007812 16.765625 176.230469 14.832031 175.566406 C 12.890625 174.898438 11.0625 174.082031 9.34375 173.113281 C 7.625 172.144531 6.195312 170.882812 5.0625 169.335938 C 3.929688 167.789062 3.359375 165.683594 3.359375 163.035156 C 3.359375 160.65625 3.761719 158.648438 4.566406 157.019531 C 5.367188 155.390625 6.464844 154.074219 7.847656 153.082031 C 9.234375 152.089844 10.808594 151.378906 12.585938 150.960938 C 14.359375 150.546875 16.246094 150.339844 18.238281 150.339844 C 19.625 150.339844 20.84375 150.464844 21.898438 150.710938 C 22.949219 150.960938 23.859375 151.222656 24.636719 151.503906 C 25.527344 151.835938 26.273438 152.199219 26.882812 152.585938 L 26.296875 155.738281 Z M 26.304688 155.769531 "/><path style=" stroke:none;fill-rule:nonzero;fill:#ffffff;fill-opacity:1;" d="M 44.671875 197.242188 C 44.671875 197.574219 44.683594 197.8125 44.714844 197.945312 C 44.746094 198.085938 44.78125 198.210938 44.839844 198.316406 C 44.894531 198.425781 44.953125 198.480469 45.003906 198.480469 L 44.507812 198.480469 C 44.34375 198.480469 44.109375 198.464844 43.804688 198.433594 C 43.5 198.40625 43.121094 198.390625 42.6875 198.390625 C 42.25 198.390625 41.871094 198.40625 41.558594 198.433594 C 41.257812 198.464844 41.019531 198.480469 40.855469 198.480469 L 40.359375 198.480469 C 40.414062 198.480469 40.472656 198.425781 40.523438 198.316406 C 40.574219 198.203125 40.621094 198.078125 40.648438 197.945312 C 40.679688 197.804688 40.695312 197.574219 40.695312 197.242188 L 40.695312 152.117188 C 40.695312 151.621094 40.632812 151.257812 40.53125 151.035156 C 40.472656 150.925781 40.417969 150.875 40.367188 150.875 C 40.480469 150.933594 40.640625 150.953125 40.863281 150.953125 L 44.523438 150.953125 C 44.746094 150.953125 44.90625 150.925781 45.019531 150.875 C 44.960938 150.875 44.90625 150.933594 44.855469 151.035156 C 44.746094 151.257812 44.691406 151.621094 44.691406 152.117188 L 44.691406 197.242188 Z M 44.671875 197.242188 "/><path style=" stroke:none;fill-rule:nonzero;fill:#ffffff;fill-opacity:1;" d="M 94.285156 156.6875 C 93.785156 156.019531 92.996094 155.457031 91.914062 154.984375 C 90.832031 154.515625 89.601562 154.125 88.21875 153.820312 C 86.832031 153.515625 85.390625 153.28125 83.894531 153.117188 C 82.398438 152.953125 81.011719 152.867188 79.738281 152.867188 C 77.078125 152.867188 74.53125 153.234375 72.09375 153.984375 C 69.660156 154.730469 67.527344 155.953125 65.695312 157.640625 C 63.867188 159.332031 62.421875 161.507812 61.371094 164.167969 C 60.320312 166.824219 59.792969 170.070312 59.792969 173.890625 C 59.792969 177.710938 60.378906 181.121094 61.542969 183.949219 C 62.703125 186.777344 64.265625 189.117188 66.238281 190.96875 C 68.199219 192.828125 70.488281 194.214844 73.09375 195.125 C 75.703125 196.035156 78.492188 196.496094 81.484375 196.496094 C 85.75 196.496094 89.328125 195.96875 92.210938 194.917969 L 92.210938 180.625 C 92.210938 180.128906 92.148438 179.808594 92.046875 179.667969 C 91.9375 179.527344 91.855469 179.429688 91.792969 179.378906 C 91.847656 179.378906 92.046875 179.394531 92.378906 179.421875 C 92.714844 179.453125 93.320312 179.46875 94.210938 179.46875 C 95.039062 179.46875 95.609375 179.453125 95.914062 179.421875 C 96.214844 179.394531 96.394531 179.378906 96.453125 179.378906 C 96.394531 179.4375 96.34375 179.519531 96.289062 179.628906 C 96.230469 179.742188 96.207031 180.074219 96.207031 180.628906 L 96.207031 196.257812 C 95.710938 196.480469 94.972656 196.746094 94.007812 197.050781 C 93.039062 197.351562 91.875 197.65625 90.519531 197.960938 C 89.164062 198.265625 87.640625 198.515625 85.953125 198.707031 C 84.261719 198.902344 82.472656 198.996094 80.589844 198.996094 C 76.597656 198.996094 73.027344 198.390625 69.867188 197.167969 C 66.710938 195.953125 64.023438 194.242188 61.800781 192.058594 C 59.585938 189.875 57.898438 187.265625 56.726562 184.246094 C 55.566406 181.222656 54.980469 177.890625 54.980469 174.230469 C 54.980469 170.128906 55.644531 166.589844 56.972656 163.597656 C 58.304688 160.605469 60.113281 158.125 62.414062 156.160156 C 64.710938 154.199219 67.414062 152.738281 70.515625 151.800781 C 73.621094 150.859375 76.917969 150.382812 80.40625 150.382812 C 82.457031 150.382812 84.308594 150.496094 85.972656 150.71875 C 87.632812 150.941406 89.0625 151.207031 90.253906 151.511719 C 91.445312 151.8125 92.417969 152.117188 93.164062 152.421875 C 93.914062 152.726562 94.425781 152.960938 94.707031 153.125 L 94.289062 156.703125 Z M 94.285156 156.6875 "/><path style=" stroke:none;fill-rule:nonzero;fill:#ffffff;fill-opacity:1;" d="M 138.578125 152.117188 C 138.578125 151.621094 138.519531 151.257812 138.414062 151.035156 C 138.355469 150.925781 138.304688 150.875 138.253906 150.875 C 138.476562 150.933594 138.695312 150.953125 138.917969 150.953125 L 141.246094 150.953125 C 141.46875 150.953125 141.660156 150.925781 141.828125 150.875 C 141.769531 150.875 141.71875 150.933594 141.667969 151.035156 C 141.554688 151.257812 141.503906 151.621094 141.503906 152.117188 L 141.503906 180.371094 C 141.503906 183.03125 141.253906 185.511719 140.757812 187.808594 C 140.257812 190.109375 139.371094 192.085938 138.097656 193.746094 C 136.824219 195.40625 135.039062 196.722656 132.734375 197.695312 C 130.433594 198.664062 127.515625 199.144531 123.964844 199.144531 C 121.195312 199.144531 118.773438 198.855469 116.695312 198.273438 C 114.613281 197.6875 112.886719 196.679688 111.503906 195.234375 C 110.117188 193.796875 109.082031 191.871094 108.382812 189.457031 C 107.6875 187.050781 107.347656 184.042969 107.347656 180.4375 L 107.347656 152.09375 C 107.347656 151.597656 107.289062 151.238281 107.183594 151.015625 C 107.125 150.902344 107.074219 150.851562 107.023438 150.851562 C 107.242188 150.910156 107.464844 150.933594 107.6875 150.933594 L 111.011719 150.933594 C 111.234375 150.933594 111.457031 150.902344 111.679688 150.851562 C 111.621094 150.851562 111.570312 150.910156 111.515625 151.015625 C 111.40625 151.234375 111.355469 151.597656 111.355469 152.09375 L 111.355469 181.601562 C 111.355469 184.429688 111.628906 186.769531 112.183594 188.621094 C 112.738281 190.480469 113.582031 191.976562 114.714844 193.109375 C 115.847656 194.242188 117.308594 195.050781 119.078125 195.515625 C 120.847656 195.992188 122.980469 196.21875 125.476562 196.21875 C 129.683594 196.21875 132.929688 195.011719 135.203125 192.605469 C 137.476562 190.199219 138.609375 186.25 138.609375 180.765625 L 138.609375 152.09375 Z M 138.578125 152.117188 "/><path style=" stroke:none;fill-rule:nonzero;fill:#ffffff;fill-opacity:1;" d="M 177.554688 198.488281 L 172.238281 198.488281 C 170.578125 198.488281 168.582031 198.472656 166.253906 198.441406 C 163.929688 198.414062 161.402344 198.398438 158.691406 198.398438 C 157.863281 198.398438 157.128906 198.414062 156.492188 198.441406 C 155.855469 198.472656 155.316406 198.488281 154.871094 198.488281 L 153.539062 198.488281 C 153.480469 198.488281 153.523438 198.433594 153.664062 198.324219 C 153.804688 198.210938 153.871094 197.855469 153.871094 197.242188 L 153.871094 152.117188 C 153.871094 151.621094 153.828125 151.304688 153.746094 151.164062 C 153.664062 151.023438 153.589844 150.925781 153.539062 150.875 C 153.648438 150.933594 153.8125 150.953125 154.035156 150.953125 L 157.613281 150.953125 C 157.835938 150.953125 157.996094 150.925781 158.109375 150.875 C 158.050781 150.933594 157.996094 151.015625 157.945312 151.125 C 157.886719 151.238281 157.863281 151.570312 157.863281 152.125 L 157.863281 195.925781 L 176.644531 195.925781 C 176.917969 195.925781 177.125 195.910156 177.265625 195.878906 C 177.40625 195.851562 177.527344 195.8125 177.644531 195.753906 L 177.976562 195.589844 L 177.5625 198.5 Z M 177.554688 198.488281 "/><path style=" stroke:none;fill-rule:nonzero;fill:#ffffff;fill-opacity:1;" d="M 198.855469 150.785156 C 206.855469 150.785156 213 152.613281 217.304688 156.273438 C 221.605469 159.929688 223.785156 165.609375 223.84375 173.304688 C 223.894531 177.851562 223.207031 181.710938 221.761719 184.894531 C 220.320312 188.082031 218.378906 190.6875 215.933594 192.710938 C 213.488281 194.730469 210.644531 196.210938 207.394531 197.152344 C 204.144531 198.09375 200.714844 198.566406 197.109375 198.566406 C 195.828125 198.566406 194.730469 198.554688 193.820312 198.523438 C 192.902344 198.492188 192.085938 198.480469 191.359375 198.480469 C 190.636719 198.480469 189.984375 198.464844 189.40625 198.433594 C 188.820312 198.40625 188.199219 198.390625 187.53125 198.390625 C 187.199219 198.390625 186.894531 198.40625 186.613281 198.433594 C 186.332031 198.464844 186.089844 198.480469 185.867188 198.480469 L 185.199219 198.480469 C 185.25 198.480469 185.308594 198.425781 185.363281 198.316406 C 185.414062 198.203125 185.457031 198.078125 185.488281 197.945312 C 185.519531 197.804688 185.53125 197.574219 185.53125 197.242188 L 185.53125 152.117188 C 185.53125 151.621094 185.472656 151.257812 185.371094 151.035156 C 185.308594 150.925781 185.257812 150.875 185.207031 150.875 C 185.371094 150.933594 185.570312 150.953125 185.792969 150.953125 L 187.539062 150.953125 C 188.367188 150.953125 189.148438 150.941406 189.871094 150.910156 C 190.589844 150.878906 191.359375 150.867188 192.160156 150.867188 C 192.960938 150.867188 193.894531 150.851562 194.953125 150.820312 C 196.003906 150.792969 197.316406 150.777344 198.871094 150.777344 Z M 196.335938 196.078125 C 198.832031 196.078125 201.449219 195.84375 204.1875 195.375 C 206.929688 194.910156 209.4375 193.863281 211.710938 192.257812 C 213.988281 190.652344 215.835938 188.339844 217.28125 185.320312 C 218.71875 182.296875 219.414062 178.214844 219.363281 173.0625 C 219.304688 169.019531 218.628906 165.707031 217.328125 163.128906 C 216.023438 160.554688 214.347656 158.546875 212.296875 157.101562 C 210.246094 155.664062 207.9375 154.664062 205.359375 154.109375 C 202.78125 153.554688 200.1875 153.28125 197.589844 153.28125 C 196.257812 153.28125 195.09375 153.308594 194.101562 153.363281 C 193.101562 153.421875 192.273438 153.472656 191.605469 153.523438 C 190.828125 153.582031 190.140625 153.636719 189.523438 153.6875 L 189.523438 193.664062 C 189.523438 194.496094 189.664062 195.066406 189.9375 195.367188 C 190.214844 195.671875 190.65625 195.855469 191.273438 195.910156 C 191.878906 195.96875 192.605469 196.003906 193.433594 196.035156 C 194.265625 196.066406 195.234375 196.078125 196.34375 196.078125 Z M 196.335938 196.078125 "/><path style=" stroke:none;fill-rule:nonzero;fill:#ffffff;fill-opacity:1;" d="M 248.195312 148.460938 L 266.722656 196.414062 C 267 197.351562 267.308594 197.96875 267.636719 198.242188 C 267.796875 198.40625 267.910156 198.492188 267.96875 198.492188 L 267.058594 198.492188 C 266.777344 198.492188 266.464844 198.480469 266.101562 198.449219 C 265.738281 198.417969 265.367188 198.40625 264.984375 198.40625 C 264.597656 198.40625 264.25 198.417969 263.945312 198.449219 C 263.644531 198.480469 263.355469 198.492188 263.074219 198.492188 L 262.242188 198.492188 C 262.296875 198.441406 262.324219 198.273438 262.324219 197.996094 C 262.324219 197.722656 262.257812 197.332031 262.117188 196.835938 C 261.976562 196.339844 261.738281 195.613281 261.414062 194.671875 L 257.257812 183.621094 L 237.476562 183.621094 L 233.070312 194.671875 C 232.6875 195.613281 232.417969 196.332031 232.277344 196.835938 C 232.136719 197.332031 232.042969 197.722656 231.992188 197.996094 C 231.929688 198.277344 231.960938 198.441406 232.070312 198.492188 L 231.574219 198.492188 C 231.414062 198.492188 231.226562 198.480469 231.035156 198.449219 C 230.84375 198.417969 230.605469 198.40625 230.332031 198.40625 C 230.058594 198.40625 229.777344 198.417969 229.5 198.449219 C 229.21875 198.480469 228.976562 198.492188 228.753906 198.492188 L 228.085938 198.492188 L 228.421875 198.160156 C 228.53125 198.050781 228.671875 197.855469 228.835938 197.574219 C 229 197.300781 229.199219 196.886719 229.421875 196.332031 L 248.203125 148.460938 Z M 250.609375 165.328125 C 250.054688 163.832031 249.59375 162.53125 249.238281 161.425781 C 248.875 160.316406 248.558594 159.375 248.285156 158.597656 C 248.003906 157.710938 247.789062 156.992188 247.617188 156.433594 C 247.503906 156.929688 247.3125 157.597656 247.03125 158.425781 C 246.585938 159.703125 245.726562 162.027344 244.453125 165.410156 L 238.390625 181.28125 L 256.421875 181.28125 L 250.601562 165.324219 Z M 250.609375 165.328125 "/><path style=" stroke:none;fill-rule:nonzero;fill:#ffffff;fill-opacity:1;" d="M 295.984375 155.769531 C 295.703125 155.125 294.808594 154.480469 293.28125 153.828125 C 291.757812 153.183594 289.832031 152.859375 287.503906 152.859375 C 284.015625 152.859375 281.328125 153.671875 279.441406 155.300781 C 277.558594 156.929688 276.613281 159.273438 276.613281 162.308594 C 276.613281 164.574219 277.203125 166.375 278.394531 167.699219 C 279.589844 169.027344 281.054688 170.121094 282.804688 170.972656 C 284.550781 171.832031 286.433594 172.585938 288.453125 173.253906 C 290.476562 173.921875 292.335938 174.757812 294.023438 175.789062 C 295.710938 176.808594 297.066406 178.128906 298.097656 179.726562 C 299.117188 181.335938 299.546875 183.488281 299.386719 186.199219 C 299.222656 188.800781 298.578125 190.925781 297.472656 192.582031 C 296.363281 194.242188 294.992188 195.539062 293.363281 196.480469 C 291.726562 197.421875 289.941406 198.070312 288 198.425781 C 286.0625 198.78125 284.179688 198.96875 282.351562 198.96875 C 280.90625 198.96875 279.609375 198.855469 278.449219 198.632812 C 277.285156 198.414062 276.285156 198.167969 275.457031 197.886719 C 274.457031 197.613281 273.574219 197.25 272.796875 196.804688 L 273.292969 193.398438 C 273.566406 193.992188 274.539062 194.648438 276.203125 195.382812 C 277.863281 196.109375 280.136719 196.472656 283.015625 196.472656 C 284.511719 196.472656 285.964844 196.316406 287.378906 196.011719 C 288.792969 195.710938 290.066406 195.199219 291.199219 194.480469 C 292.335938 193.761719 293.265625 192.792969 293.984375 191.578125 C 294.703125 190.363281 295.117188 188.835938 295.230469 187.015625 C 295.394531 184.578125 294.964844 182.675781 293.941406 181.289062 C 292.910156 179.90625 291.570312 178.773438 289.914062 177.890625 C 288.253906 177.007812 286.445312 176.230469 284.511719 175.566406 C 282.574219 174.898438 280.742188 174.082031 279.027344 173.113281 C 277.308594 172.144531 275.878906 170.882812 274.746094 169.335938 C 273.613281 167.789062 273.042969 165.683594 273.042969 163.035156 C 273.042969 160.65625 273.441406 158.648438 274.25 157.019531 C 275.046875 155.390625 276.144531 154.074219 277.53125 153.082031 C 278.914062 152.089844 280.492188 151.378906 282.269531 150.960938 C 284.039062 150.546875 285.929688 150.339844 287.921875 150.339844 C 289.304688 150.339844 290.527344 150.464844 291.578125 150.710938 C 292.628906 150.960938 293.542969 151.222656 294.320312 151.503906 C 295.207031 151.835938 295.957031 152.199219 296.5625 152.585938 L 295.976562 155.738281 Z M 295.984375 155.769531 "/><path style=" stroke:none;fill-rule:nonzero;fill:#ffffff;fill-opacity:1;" d="M 349.003906 155.769531 C 348.722656 155.125 347.828125 154.480469 346.300781 153.828125 C 344.777344 153.183594 342.851562 152.859375 340.523438 152.859375 C 337.035156 152.859375 334.347656 153.671875 332.460938 155.300781 C 330.578125 156.929688 329.628906 159.273438 329.628906 162.308594 C 329.628906 164.574219 330.222656 166.375 331.414062 167.699219 C 332.609375 169.027344 334.074219 170.121094 335.820312 170.972656 C 337.570312 171.832031 339.453125 172.585938 341.472656 173.253906 C 343.496094 173.921875 345.355469 174.757812 347.042969 175.789062 C 348.730469 176.808594 350.085938 178.128906 351.117188 179.726562 C 352.136719 181.335938 352.566406 183.488281 352.402344 186.199219 C 352.242188 188.800781 351.597656 190.925781 350.492188 192.582031 C 349.382812 194.242188 348.011719 195.539062 346.382812 196.480469 C 344.746094 197.421875 342.960938 198.070312 341.019531 198.425781 C 339.082031 198.78125 337.199219 198.96875 335.371094 198.96875 C 333.925781 198.96875 332.628906 198.855469 331.46875 198.632812 C 330.304688 198.414062 329.304688 198.167969 328.476562 197.886719 C 327.476562 197.613281 326.59375 197.25 325.816406 196.804688 L 326.3125 193.398438 C 326.585938 193.992188 327.558594 194.648438 329.222656 195.382812 C 330.882812 196.109375 333.15625 196.472656 336.035156 196.472656 C 337.53125 196.472656 338.984375 196.316406 340.398438 196.011719 C 341.8125 195.710938 343.085938 195.199219 344.21875 194.480469 C 345.355469 193.761719 346.285156 192.792969 347.003906 191.578125 C 347.722656 190.363281 348.136719 188.835938 348.25 187.015625 C 348.414062 184.578125 347.984375 182.675781 346.960938 181.289062 C 345.929688 179.90625 344.589844 178.773438 342.933594 177.890625 C 341.273438 177.007812 339.464844 176.230469 337.53125 175.566406 C 335.59375 174.898438 333.761719 174.082031 332.046875 173.113281 C 330.328125 172.144531 328.898438 170.882812 327.765625 169.335938 C 326.632812 167.789062 326.0625 165.683594 326.0625 163.035156 C 326.0625 160.65625 326.460938 158.648438 327.269531 157.019531 C 328.066406 155.390625 329.164062 154.074219 330.550781 153.082031 C 331.933594 152.089844 333.511719 151.378906 335.289062 150.960938 C 337.058594 150.546875 338.949219 150.339844 340.941406 150.339844 C 342.324219 150.339844 343.546875 150.464844 344.597656 150.710938 C 345.648438 150.960938 346.5625 151.222656 347.339844 151.503906 C 348.226562 151.835938 348.976562 152.199219 349.582031 152.585938 L 348.996094 155.738281 Z M 349.003906 155.769531 "/><path style=" stroke:none;fill-rule:nonzero;fill:#ffffff;fill-opacity:1;" d="M 367.371094 197.242188 C 367.371094 197.574219 367.386719 197.8125 367.417969 197.945312 C 367.445312 198.085938 367.484375 198.210938 367.542969 198.316406 C 367.59375 198.425781 367.652344 198.480469 367.703125 198.480469 L 367.207031 198.480469 C 367.046875 198.480469 366.808594 198.464844 366.503906 198.433594 C 366.203125 198.40625 365.824219 198.390625 365.386719 198.390625 C 364.949219 198.390625 364.574219 198.40625 364.261719 198.433594 C 363.957031 198.464844 363.71875 198.480469 363.558594 198.480469 L 363.0625 198.480469 C 363.113281 198.480469 363.171875 198.425781 363.222656 198.316406 C 363.277344 198.203125 363.320312 198.078125 363.351562 197.945312 C 363.378906 197.804688 363.394531 197.574219 363.394531 197.242188 L 363.394531 152.117188 C 363.394531 151.621094 363.335938 151.257812 363.230469 151.035156 C 363.171875 150.925781 363.121094 150.875 363.070312 150.875 C 363.179688 150.933594 363.34375 150.953125 363.566406 150.953125 L 367.222656 150.953125 C 367.445312 150.953125 367.609375 150.925781 367.71875 150.875 C 367.660156 150.875 367.609375 150.933594 367.558594 151.035156 C 367.445312 151.257812 367.394531 151.621094 367.394531 152.117188 L 367.394531 197.242188 Z M 392.054688 194.503906 C 392.832031 195.441406 393.492188 196.175781 394.046875 196.703125 C 394.605469 197.226562 395.046875 197.628906 395.382812 197.910156 C 395.765625 198.191406 396.070312 198.382812 396.292969 198.492188 L 395.460938 198.492188 C 395.179688 198.492188 394.8125 198.480469 394.34375 198.449219 C 393.871094 198.417969 393.308594 198.40625 392.640625 198.40625 C 392.085938 198.40625 391.640625 198.417969 391.308594 198.449219 C 390.976562 198.480469 390.699219 198.492188 390.476562 198.492188 L 389.980469 198.492188 C 389.980469 198.332031 389.921875 198.132812 389.820312 197.910156 C 389.707031 197.6875 389.53125 197.425781 389.277344 197.117188 C 389.027344 196.8125 388.6875 196.382812 388.242188 195.828125 L 369.128906 173.46875 L 387.910156 153.019531 C 388.796875 152.082031 389.324219 151.472656 389.484375 151.191406 C 389.597656 151.027344 389.625 150.917969 389.566406 150.859375 C 389.839844 150.917969 390.09375 150.941406 390.316406 150.941406 L 393.558594 150.941406 C 393.78125 150.941406 394.027344 150.910156 394.308594 150.859375 C 394.195312 150.859375 394.027344 150.917969 393.8125 151.023438 C 393.476562 151.183594 393.003906 151.578125 392.398438 152.183594 L 373.28125 172.625 L 392.0625 194.480469 Z M 392.054688 194.503906 "/><path style=" stroke:none;fill-rule:nonzero;fill:#ffffff;fill-opacity:1;" d="M 417.652344 148.460938 L 436.179688 196.414062 C 436.453125 197.351562 436.765625 197.96875 437.089844 198.242188 C 437.253906 198.40625 437.367188 198.492188 437.425781 198.492188 L 436.515625 198.492188 C 436.234375 198.492188 435.921875 198.480469 435.558594 198.449219 C 435.195312 198.417969 434.824219 198.40625 434.441406 198.40625 C 434.054688 198.40625 433.707031 198.417969 433.402344 198.449219 C 433.101562 198.480469 432.8125 198.492188 432.53125 198.492188 L 431.699219 198.492188 C 431.753906 198.441406 431.78125 198.273438 431.78125 197.996094 C 431.78125 197.722656 431.714844 197.332031 431.574219 196.835938 C 431.433594 196.339844 431.195312 195.613281 430.871094 194.671875 L 426.714844 183.621094 L 406.933594 183.621094 L 402.527344 194.671875 C 402.144531 195.613281 401.875 196.332031 401.734375 196.835938 C 401.59375 197.332031 401.5 197.722656 401.445312 197.996094 C 401.386719 198.277344 401.417969 198.441406 401.527344 198.492188 L 401.03125 198.492188 C 400.867188 198.492188 400.683594 198.480469 400.492188 198.449219 C 400.296875 198.417969 400.0625 198.40625 399.789062 198.40625 C 399.515625 198.40625 399.230469 198.417969 398.957031 198.449219 C 398.675781 198.480469 398.433594 198.492188 398.210938 198.492188 L 397.542969 198.492188 L 397.878906 198.160156 C 397.988281 198.050781 398.128906 197.855469 398.292969 197.574219 C 398.453125 197.300781 398.65625 196.886719 398.875 196.332031 L 417.660156 148.460938 Z M 420.058594 165.328125 C 419.503906 163.832031 419.042969 162.53125 418.6875 161.425781 C 418.324219 160.316406 418.007812 159.375 417.734375 158.597656 C 417.449219 157.710938 417.238281 156.992188 417.066406 156.433594 C 416.953125 156.929688 416.761719 157.597656 416.480469 158.425781 C 416.035156 159.703125 415.175781 162.027344 413.902344 165.410156 L 407.839844 181.28125 L 425.871094 181.28125 L 420.050781 165.324219 Z M 420.058594 165.328125 "/><path style=" stroke:none;fill-rule:nonzero;fill:#ffffff;fill-opacity:1;" d="M 454.800781 153.441406 L 454.800781 197.242188 C 454.800781 197.796875 454.84375 198.136719 454.925781 198.277344 C 455.007812 198.417969 455.082031 198.488281 455.132812 198.488281 L 454.636719 198.488281 C 454.472656 198.488281 454.238281 198.472656 453.933594 198.441406 C 453.628906 198.414062 453.25 198.398438 452.816406 198.398438 C 451.925781 198.398438 451.332031 198.414062 451.03125 198.441406 C 450.726562 198.472656 450.542969 198.488281 450.488281 198.488281 C 450.542969 198.488281 450.601562 198.433594 450.652344 198.324219 C 450.703125 198.210938 450.75 198.085938 450.777344 197.953125 C 450.808594 197.8125 450.824219 197.582031 450.824219 197.25 L 450.824219 153.449219 L 436.609375 153.449219 C 436.167969 153.449219 435.878906 153.480469 435.738281 153.546875 C 435.597656 153.605469 435.5 153.65625 435.449219 153.703125 L 435.78125 150.792969 C 436.167969 150.851562 437.054688 150.875 438.441406 150.875 C 439.601562 150.933594 441.304688 150.953125 443.550781 150.953125 L 452.894531 150.953125 C 456.777344 150.953125 459.769531 150.941406 461.871094 150.910156 C 463.976562 150.882812 465.546875 150.867188 466.566406 150.867188 C 467.589844 150.867188 468.285156 150.851562 468.648438 150.820312 C 469.011719 150.792969 469.410156 150.777344 469.855469 150.777344 L 470.1875 153.769531 C 470.1875 153.71875 470.121094 153.644531 469.980469 153.5625 C 469.839844 153.480469 469.523438 153.4375 469.027344 153.4375 L 454.8125 153.4375 Z M 454.800781 153.441406 "/><path style=" stroke:none;fill-rule:nonzero;fill:#ffffff;fill-opacity:1;" d="M 480.726562 197.242188 C 480.726562 197.574219 480.742188 197.8125 480.773438 197.945312 C 480.800781 198.085938 480.839844 198.210938 480.898438 198.316406 C 480.949219 198.425781 481.007812 198.480469 481.0625 198.480469 L 480.566406 198.480469 C 480.402344 198.480469 480.164062 198.464844 479.863281 198.433594 C 479.558594 198.40625 479.179688 198.390625 478.742188 198.390625 C 478.304688 198.390625 477.929688 198.40625 477.617188 198.433594 C 477.3125 198.464844 477.078125 198.480469 476.914062 198.480469 L 476.417969 198.480469 C 476.46875 198.480469 476.527344 198.425781 476.582031 198.316406 C 476.632812 198.203125 476.675781 198.078125 476.707031 197.945312 C 476.734375 197.804688 476.75 197.574219 476.75 197.242188 L 476.75 152.117188 C 476.75 151.621094 476.691406 151.257812 476.585938 151.035156 C 476.527344 150.925781 476.476562 150.875 476.425781 150.875 C 476.535156 150.933594 476.699219 150.953125 476.921875 150.953125 L 480.578125 150.953125 C 480.800781 150.953125 480.964844 150.925781 481.074219 150.875 C 481.015625 150.875 480.964844 150.933594 480.914062 151.035156 C 480.800781 151.257812 480.75 151.621094 480.75 152.117188 L 480.75 197.242188 Z M 480.726562 197.242188 "/><path style=" stroke:none;fill-rule:nonzero;fill:#ffffff;fill-opacity:1;" d="M 8.011719 211.511719 C 10.804688 211.511719 12.949219 212.152344 14.453125 213.433594 C 15.957031 214.714844 16.71875 216.691406 16.734375 219.378906 C 16.757812 220.964844 16.511719 222.3125 16.007812 223.421875 C 15.503906 224.535156 14.824219 225.445312 13.972656 226.148438 C 13.121094 226.851562 12.128906 227.371094 10.996094 227.703125 C 9.863281 228.027344 8.664062 228.199219 7.402344 228.199219 C 6.960938 228.199219 6.574219 228.199219 6.253906 228.183594 C 5.9375 228.175781 5.648438 228.167969 5.398438 228.167969 C 5.144531 228.167969 4.914062 228.167969 4.714844 228.15625 C 4.515625 228.148438 4.292969 228.140625 4.0625 228.140625 C 3.945312 228.140625 3.839844 228.140625 3.746094 228.15625 C 3.648438 228.164062 3.558594 228.167969 3.484375 228.167969 L 3.257812 228.167969 C 3.257812 228.167969 3.292969 228.148438 3.316406 228.109375 C 3.335938 228.074219 3.351562 228.027344 3.359375 227.976562 C 3.367188 227.933594 3.375 227.84375 3.375 227.734375 L 3.375 211.980469 C 3.375 211.808594 3.351562 211.683594 3.316406 211.601562 C 3.292969 211.566406 3.277344 211.542969 3.257812 211.542969 C 3.316406 211.566406 3.382812 211.574219 3.457031 211.574219 L 4.0625 211.574219 C 4.351562 211.574219 4.625 211.574219 4.878906 211.558594 C 5.128906 211.550781 5.398438 211.542969 5.679688 211.542969 C 5.960938 211.542969 6.285156 211.542969 6.648438 211.527344 C 7.019531 211.519531 7.46875 211.511719 8.019531 211.511719 Z M 7.136719 227.324219 C 8.011719 227.324219 8.921875 227.242188 9.878906 227.082031 C 10.832031 226.917969 11.707031 226.554688 12.507812 225.992188 C 13.296875 225.429688 13.949219 224.621094 14.445312 223.570312 C 14.949219 222.519531 15.195312 221.089844 15.171875 219.289062 C 15.148438 217.875 14.914062 216.71875 14.460938 215.824219 C 14.007812 214.929688 13.425781 214.222656 12.707031 213.71875 C 11.988281 213.21875 11.179688 212.867188 10.285156 212.675781 C 9.386719 212.484375 8.476562 212.386719 7.574219 212.386719 C 7.105469 212.386719 6.699219 212.394531 6.351562 212.417969 C 6.003906 212.4375 5.714844 212.453125 5.476562 212.476562 C 5.203125 212.5 4.96875 212.511719 4.753906 212.535156 L 4.753906 226.488281 C 4.753906 226.777344 4.796875 226.976562 4.898438 227.082031 C 4.996094 227.183594 5.152344 227.25 5.367188 227.265625 C 5.582031 227.289062 5.832031 227.304688 6.121094 227.3125 C 6.410156 227.316406 6.75 227.324219 7.136719 227.324219 Z M 7.136719 227.324219 "/><path style=" stroke:none;fill-rule:nonzero;fill:#ffffff;fill-opacity:1;" d="M 30.457031 227.734375 C 30.457031 227.851562 30.457031 227.933594 30.472656 227.976562 C 30.480469 228.027344 30.496094 228.066406 30.519531 228.109375 C 30.539062 228.148438 30.554688 228.167969 30.578125 228.167969 L 30.40625 228.167969 C 30.347656 228.167969 30.265625 228.167969 30.164062 228.15625 C 30.058594 228.148438 29.925781 228.140625 29.769531 228.140625 C 29.613281 228.140625 29.480469 228.140625 29.378906 228.15625 C 29.273438 228.164062 29.191406 228.167969 29.132812 228.167969 L 28.960938 228.167969 C 28.960938 228.167969 29 228.148438 29.023438 228.109375 C 29.042969 228.074219 29.058594 228.027344 29.066406 227.976562 C 29.074219 227.933594 29.082031 227.84375 29.082031 227.734375 L 29.082031 211.980469 C 29.082031 211.808594 29.058594 211.683594 29.023438 211.601562 C 29 211.566406 28.984375 211.542969 28.960938 211.542969 C 29 211.566406 29.058594 211.574219 29.132812 211.574219 L 30.40625 211.574219 C 30.480469 211.574219 30.539062 211.566406 30.578125 211.542969 C 30.554688 211.542969 30.539062 211.566406 30.519531 211.601562 C 30.480469 211.675781 30.457031 211.800781 30.457031 211.980469 Z M 30.457031 227.734375 "/><path style=" stroke:none;fill-rule:nonzero;fill:#ffffff;fill-opacity:1;" d="M 43.335938 211.542969 L 54.652344 211.542969 L 44.328125 227.296875 L 53.4375 227.296875 C 53.652344 227.296875 53.824219 227.296875 53.949219 227.28125 C 54.074219 227.273438 54.164062 227.257812 54.222656 227.238281 C 54.296875 227.214844 54.34375 227.199219 54.34375 227.175781 L 54.195312 228.164062 L 42.070312 228.164062 L 52.425781 212.410156 L 43.953125 212.410156 C 43.757812 212.410156 43.613281 212.410156 43.515625 212.425781 C 43.417969 212.433594 43.34375 212.445312 43.285156 212.46875 C 43.210938 212.492188 43.167969 212.507812 43.167969 212.527344 Z M 43.335938 211.542969 "/><path style=" stroke:none;fill-rule:nonzero;fill:#ffffff;fill-opacity:1;" d="M 71.363281 210.699219 L 77.835938 227.4375 C 77.929688 227.761719 78.035156 227.976562 78.152344 228.074219 C 78.210938 228.132812 78.25 228.164062 78.273438 228.164062 L 77.953125 228.164062 C 77.855469 228.164062 77.746094 228.164062 77.621094 228.148438 C 77.492188 228.140625 77.359375 228.132812 77.226562 228.132812 C 77.09375 228.132812 76.96875 228.132812 76.863281 228.148438 C 76.761719 228.15625 76.65625 228.164062 76.5625 228.164062 L 76.273438 228.164062 C 76.273438 228.164062 76.300781 228.089844 76.300781 227.992188 C 76.300781 227.894531 76.28125 227.761719 76.226562 227.585938 C 76.175781 227.40625 76.09375 227.164062 75.984375 226.828125 L 74.53125 222.96875 L 67.628906 222.96875 L 66.089844 226.828125 C 65.957031 227.15625 65.859375 227.40625 65.816406 227.585938 C 65.761719 227.753906 65.734375 227.894531 65.710938 227.992188 C 65.6875 228.089844 65.703125 228.148438 65.742188 228.164062 L 65.570312 228.164062 C 65.511719 228.164062 65.453125 228.164062 65.386719 228.148438 C 65.320312 228.140625 65.238281 228.132812 65.140625 228.132812 C 65.042969 228.132812 64.949219 228.132812 64.851562 228.148438 C 64.753906 228.15625 64.667969 228.164062 64.59375 228.164062 L 64.363281 228.164062 L 64.480469 228.042969 C 64.519531 228.007812 64.570312 227.941406 64.628906 227.84375 C 64.6875 227.746094 64.753906 227.597656 64.828125 227.40625 L 71.382812 210.699219 Z M 72.207031 216.585938 C 72.011719 216.0625 71.851562 215.609375 71.726562 215.222656 C 71.597656 214.839844 71.488281 214.503906 71.390625 214.238281 C 71.296875 213.929688 71.214844 213.675781 71.160156 213.484375 C 71.125 213.660156 71.058594 213.890625 70.960938 214.179688 C 70.804688 214.625 70.511719 215.4375 70.066406 216.617188 L 67.949219 222.15625 L 74.242188 222.15625 L 72.214844 216.585938 Z M 72.207031 216.585938 "/><path style=" stroke:none;fill-rule:nonzero;fill:#ffffff;fill-opacity:1;" d="M 91.144531 227.734375 C 91.144531 227.851562 91.144531 227.933594 91.15625 227.976562 C 91.164062 228.027344 91.179688 228.066406 91.203125 228.109375 C 91.222656 228.148438 91.238281 228.167969 91.261719 228.167969 L 91.089844 228.167969 C 91.03125 228.167969 90.949219 228.167969 90.847656 228.15625 C 90.742188 228.148438 90.609375 228.140625 90.453125 228.140625 C 90.300781 228.140625 90.164062 228.140625 90.0625 228.15625 C 89.957031 228.164062 89.875 228.167969 89.816406 228.167969 L 89.648438 228.167969 C 89.648438 228.167969 89.683594 228.148438 89.707031 228.109375 C 89.730469 228.074219 89.742188 228.027344 89.75 227.976562 C 89.757812 227.933594 89.765625 227.84375 89.765625 227.734375 L 89.765625 211.980469 C 89.765625 211.808594 89.742188 211.683594 89.707031 211.601562 C 89.683594 211.566406 89.667969 211.542969 89.648438 211.542969 C 89.683594 211.566406 89.742188 211.574219 89.816406 211.574219 L 91.089844 211.574219 C 91.164062 211.574219 91.222656 211.566406 91.261719 211.542969 C 91.238281 211.542969 91.226562 211.566406 91.203125 211.601562 C 91.164062 211.675781 91.144531 211.800781 91.144531 211.980469 Z M 91.144531 227.734375 "/><path style=" stroke:none;fill-rule:nonzero;fill:#ffffff;fill-opacity:1;" d="M 105.246094 211.164062 L 114.992188 222.480469 C 115.433594 223.007812 115.804688 223.453125 116.09375 223.816406 C 116.382812 224.179688 116.621094 224.480469 116.789062 224.710938 C 117.003906 224.984375 117.160156 225.214844 117.257812 225.40625 C 117.234375 225.214844 117.226562 224.957031 117.226562 224.621094 C 117.203125 224.347656 117.199219 224.007812 117.199219 223.59375 L 117.199219 211.972656 C 117.199219 211.800781 117.175781 211.675781 117.136719 211.59375 L 117.109375 211.535156 C 117.203125 211.558594 117.292969 211.566406 117.367188 211.566406 L 118.152344 211.566406 C 118.210938 211.566406 118.257812 211.558594 118.300781 211.535156 C 118.277344 211.535156 118.265625 211.558594 118.242188 211.59375 C 118.21875 211.632812 118.210938 211.757812 118.210938 211.972656 L 118.210938 228.480469 L 108.347656 217.054688 C 107.925781 216.570312 107.578125 216.15625 107.304688 215.816406 C 107.027344 215.476562 106.808594 215.195312 106.636719 214.957031 C 106.421875 214.707031 106.257812 214.484375 106.140625 214.289062 C 106.140625 214.484375 106.148438 214.734375 106.167969 215.046875 C 106.167969 215.320312 106.167969 215.652344 106.183594 216.0625 C 106.191406 216.46875 106.199219 216.957031 106.199219 217.542969 L 106.199219 227.726562 C 106.199219 227.941406 106.207031 228.066406 106.230469 228.101562 C 106.25 228.140625 106.265625 228.164062 106.289062 228.164062 L 106.089844 228.164062 C 106.027344 228.164062 105.96875 228.164062 105.917969 228.148438 C 105.859375 228.140625 105.800781 228.132812 105.742188 228.132812 C 105.679688 228.132812 105.621094 228.132812 105.554688 228.148438 C 105.488281 228.15625 105.421875 228.164062 105.371094 228.164062 L 105.171875 228.164062 L 105.199219 228.101562 C 105.222656 228.066406 105.238281 228.023438 105.246094 227.96875 C 105.25 227.925781 105.257812 227.835938 105.257812 227.726562 L 105.257812 211.15625 Z M 105.246094 211.164062 "/><path style=" stroke:none;fill-rule:nonzero;fill:#ffffff;fill-opacity:1;" d="M 136.402344 210.699219 L 142.875 227.4375 C 142.96875 227.761719 143.074219 227.976562 143.191406 228.074219 C 143.25 228.132812 143.289062 228.164062 143.3125 228.164062 L 142.992188 228.164062 C 142.894531 228.164062 142.785156 228.164062 142.660156 228.148438 C 142.535156 228.140625 142.398438 228.132812 142.265625 228.132812 C 142.132812 228.132812 142.007812 228.132812 141.902344 228.148438 C 141.800781 228.15625 141.695312 228.164062 141.601562 228.164062 L 141.3125 228.164062 C 141.3125 228.164062 141.339844 228.089844 141.339844 227.992188 C 141.339844 227.894531 141.320312 227.761719 141.265625 227.585938 C 141.214844 227.40625 141.132812 227.164062 141.023438 226.828125 L 139.570312 222.96875 L 132.667969 222.96875 L 131.128906 226.828125 C 130.996094 227.15625 130.898438 227.40625 130.855469 227.585938 C 130.800781 227.753906 130.773438 227.894531 130.75 227.992188 C 130.726562 228.089844 130.742188 228.148438 130.78125 228.164062 L 130.609375 228.164062 C 130.550781 228.164062 130.492188 228.164062 130.425781 228.148438 C 130.359375 228.140625 130.277344 228.132812 130.179688 228.132812 C 130.082031 228.132812 129.988281 228.132812 129.890625 228.148438 C 129.796875 228.15625 129.707031 228.164062 129.632812 228.164062 L 129.402344 228.164062 L 129.519531 228.042969 C 129.558594 228.007812 129.609375 227.941406 129.667969 227.84375 C 129.726562 227.746094 129.796875 227.597656 129.867188 227.40625 L 136.421875 210.699219 Z M 137.246094 216.585938 C 137.054688 216.0625 136.890625 215.609375 136.765625 215.222656 C 136.636719 214.839844 136.527344 214.503906 136.429688 214.238281 C 136.335938 213.929688 136.253906 213.675781 136.203125 213.484375 C 136.164062 213.660156 136.097656 213.890625 136 214.179688 C 135.847656 214.625 135.550781 215.4375 135.105469 216.617188 L 132.988281 222.15625 L 139.28125 222.15625 L 137.253906 216.585938 Z M 137.246094 216.585938 "/><path style=" stroke:none;fill-rule:nonzero;fill:#ffffff;fill-opacity:1;" d="M 174.074219 228.191406 C 173.617188 228.191406 173.121094 228.183594 172.601562 228.164062 C 172.082031 228.140625 171.445312 228.132812 170.691406 228.132812 C 170.476562 228.132812 170.3125 228.132812 170.1875 228.148438 C 170.0625 228.15625 169.957031 228.164062 169.882812 228.164062 C 169.90625 228.164062 169.921875 228.140625 169.941406 228.101562 C 169.980469 228.027344 170.003906 227.886719 170.003906 227.695312 L 170.003906 211.972656 C 170.003906 211.800781 169.980469 211.675781 169.941406 211.59375 C 169.921875 211.558594 169.90625 211.535156 169.882812 211.535156 C 169.957031 211.558594 170.039062 211.566406 170.113281 211.566406 L 170.691406 211.566406 C 171.136719 211.566406 171.617188 211.558594 172.136719 211.535156 C 172.652344 211.515625 173.328125 211.507812 174.15625 211.507812 C 175.660156 211.507812 176.824219 211.765625 177.636719 212.292969 C 178.460938 212.816406 178.867188 213.75 178.867188 215.105469 C 178.867188 215.898438 178.761719 216.558594 178.546875 217.074219 C 178.332031 217.601562 178.058594 218.015625 177.710938 218.335938 C 177.363281 218.652344 176.984375 218.882812 176.570312 219.03125 C 176.15625 219.179688 175.75 219.269531 175.34375 219.304688 L 175.34375 219.363281 C 175.75 219.402344 176.199219 219.484375 176.703125 219.609375 C 177.207031 219.734375 177.683594 219.941406 178.132812 220.230469 C 178.585938 220.519531 178.964844 220.90625 179.257812 221.394531 C 179.554688 221.875 179.710938 222.496094 179.710938 223.253906 C 179.710938 224.257812 179.546875 225.082031 179.222656 225.71875 C 178.898438 226.355469 178.460938 226.859375 177.917969 227.230469 C 177.378906 227.597656 176.777344 227.851562 176.113281 227.984375 C 175.445312 228.117188 174.765625 228.183594 174.074219 228.183594 Z M 171.386719 218.972656 C 171.519531 218.992188 171.675781 219 171.855469 219 C 172.007812 219.023438 172.1875 219.03125 172.386719 219.03125 L 173.039062 219.03125 C 173.734375 219.03125 174.355469 218.992188 174.914062 218.914062 C 175.460938 218.839844 175.925781 218.667969 176.304688 218.414062 C 176.683594 218.164062 176.972656 217.808594 177.179688 217.34375 C 177.378906 216.875 177.480469 216.261719 177.480469 215.484375 C 177.480469 214.808594 177.386719 214.261719 177.191406 213.847656 C 177 213.433594 176.734375 213.113281 176.394531 212.890625 C 176.054688 212.667969 175.652344 212.519531 175.1875 212.4375 C 174.71875 212.367188 174.230469 212.320312 173.707031 212.320312 C 173.378906 212.320312 173.066406 212.328125 172.792969 212.351562 C 172.511719 212.371094 172.269531 212.386719 172.054688 212.410156 C 171.824219 212.433594 171.601562 212.445312 171.386719 212.46875 Z M 173.378906 219.777344 C 172.972656 219.777344 172.644531 219.777344 172.394531 219.792969 C 172.140625 219.808594 171.941406 219.808594 171.785156 219.808594 C 171.617188 219.832031 171.476562 219.839844 171.378906 219.839844 L 171.378906 226.679688 C 171.378906 226.894531 171.425781 227.035156 171.511719 227.101562 C 171.601562 227.171875 171.71875 227.222656 171.875 227.265625 C 172.070312 227.304688 172.3125 227.332031 172.609375 227.355469 C 172.90625 227.378906 173.261719 227.382812 173.660156 227.382812 C 174.203125 227.382812 174.742188 227.339844 175.273438 227.25 C 175.816406 227.164062 176.296875 226.976562 176.71875 226.6875 C 177.140625 226.398438 177.480469 225.984375 177.742188 225.445312 C 178 224.902344 178.132812 224.179688 178.132812 223.265625 C 178.132812 222.511719 178 221.902344 177.726562 221.4375 C 177.460938 220.972656 177.097656 220.621094 176.644531 220.378906 C 176.195312 220.132812 175.683594 219.980469 175.113281 219.898438 C 174.542969 219.824219 173.964844 219.777344 173.363281 219.777344 Z M 173.378906 219.777344 "/><path style=" stroke:none;fill-rule:nonzero;fill:#ffffff;fill-opacity:1;" d="M 194.855469 219.71875 C 195.300781 219.695312 195.835938 219.628906 196.449219 219.519531 C 197.070312 219.402344 197.664062 219.199219 198.234375 218.914062 C 198.804688 218.625 199.285156 218.222656 199.683594 217.71875 C 200.078125 217.214844 200.277344 216.550781 200.277344 215.71875 C 200.277344 214.890625 200.152344 214.304688 199.898438 213.859375 C 199.648438 213.417969 199.316406 213.082031 198.898438 212.863281 C 198.484375 212.640625 197.996094 212.507812 197.433594 212.453125 C 196.871094 212.410156 196.285156 212.378906 195.664062 212.378906 C 195.339844 212.378906 195.054688 212.378906 194.820312 212.394531 C 194.589844 212.402344 194.382812 212.417969 194.210938 212.4375 C 193.996094 212.460938 193.828125 212.46875 193.6875 212.46875 L 193.6875 227.726562 C 193.6875 227.894531 193.695312 228.015625 193.714844 228.074219 C 193.738281 228.132812 193.753906 228.164062 193.773438 228.164062 C 193.753906 228.164062 193.679688 228.164062 193.546875 228.148438 C 193.414062 228.140625 193.226562 228.132812 192.996094 228.132812 C 192.78125 228.132812 192.597656 228.132812 192.449219 228.148438 C 192.292969 228.15625 192.207031 228.164062 192.191406 228.164062 C 192.210938 228.164062 192.234375 228.140625 192.265625 228.101562 C 192.292969 228.066406 192.308594 227.941406 192.308594 227.726562 L 192.308594 211.972656 C 192.308594 211.800781 192.292969 211.683594 192.265625 211.640625 C 192.234375 211.59375 192.210938 211.558594 192.191406 211.535156 C 192.210938 211.535156 192.292969 211.535156 192.449219 211.550781 C 192.605469 211.558594 192.789062 211.566406 193.003906 211.566406 C 193.507812 211.566406 194.050781 211.558594 194.632812 211.535156 C 195.21875 211.511719 195.976562 211.507812 196.902344 211.507812 C 197.558594 211.507812 198.1875 211.574219 198.789062 211.691406 C 199.390625 211.816406 199.914062 212.03125 200.359375 212.328125 C 200.804688 212.625 201.167969 213.03125 201.433594 213.550781 C 201.707031 214.0625 201.839844 214.699219 201.839844 215.453125 C 201.839844 216.320312 201.671875 217.046875 201.328125 217.617188 C 200.988281 218.1875 200.566406 218.636719 200.0625 218.980469 C 199.558594 219.320312 199.011719 219.570312 198.417969 219.75 C 197.828125 219.925781 197.285156 220.050781 196.804688 220.125 L 202.882812 227.238281 C 203.234375 227.644531 203.476562 227.894531 203.609375 227.992188 C 203.742188 228.089844 203.832031 228.148438 203.871094 228.164062 L 201.75 228.164062 L 194.847656 219.71875 Z M 194.855469 219.71875 "/><path style=" stroke:none;fill-rule:nonzero;fill:#ffffff;fill-opacity:1;" d="M 213.1875 207.507812 L 219.453125 207.507812 L 219.453125 208.523438 L 213.1875 208.523438 Z M 216.902344 227.734375 C 216.902344 227.851562 216.902344 227.933594 216.917969 227.976562 C 216.925781 228.027344 216.941406 228.066406 216.964844 228.109375 C 216.984375 228.148438 217 228.167969 217.023438 228.167969 L 216.851562 228.167969 C 216.792969 228.167969 216.710938 228.167969 216.609375 228.15625 C 216.503906 228.148438 216.371094 228.140625 216.214844 228.140625 C 216.058594 228.140625 215.925781 228.140625 215.824219 228.15625 C 215.71875 228.164062 215.636719 228.167969 215.578125 228.167969 L 215.410156 228.167969 C 215.410156 228.167969 215.445312 228.148438 215.46875 228.109375 C 215.488281 228.074219 215.503906 228.027344 215.511719 227.976562 C 215.519531 227.933594 215.527344 227.84375 215.527344 227.734375 L 215.527344 211.980469 C 215.527344 211.808594 215.503906 211.683594 215.46875 211.601562 C 215.445312 211.566406 215.429688 211.542969 215.410156 211.542969 C 215.445312 211.566406 215.503906 211.574219 215.578125 211.574219 L 216.851562 211.574219 C 216.925781 211.574219 216.984375 211.566406 217.023438 211.542969 C 217 211.542969 216.984375 211.566406 216.964844 211.601562 C 216.925781 211.675781 216.90625 211.800781 216.90625 211.980469 L 216.90625 227.734375 Z M 216.902344 227.734375 "/><path style=" stroke:none;fill-rule:nonzero;fill:#ffffff;fill-opacity:1;" d="M 240.78125 212.296875 C 240.914062 211.949219 240.980469 211.726562 240.980469 211.632812 C 240.980469 211.574219 240.972656 211.542969 240.953125 211.542969 L 242.3125 211.542969 C 242.3125 211.542969 242.277344 211.566406 242.253906 211.601562 C 242.195312 211.660156 242.128906 211.773438 242.054688 211.949219 L 235.234375 228.546875 L 228.761719 212.007812 C 228.6875 211.796875 228.613281 211.660156 228.5625 211.601562 C 228.523438 211.566406 228.496094 211.542969 228.472656 211.542969 C 228.570312 211.566406 228.664062 211.574219 228.761719 211.574219 L 230.066406 211.574219 C 230.140625 211.574219 230.21875 211.566406 230.292969 211.542969 C 230.273438 211.542969 230.265625 211.582031 230.265625 211.660156 C 230.265625 211.722656 230.273438 211.800781 230.292969 211.90625 C 230.316406 212.007812 230.359375 212.164062 230.441406 212.359375 L 234.449219 222.710938 C 234.605469 223.15625 234.746094 223.546875 234.871094 223.890625 C 234.996094 224.230469 235.101562 224.527344 235.175781 224.769531 C 235.25 225.058594 235.332031 225.3125 235.40625 225.527344 C 235.5 225.273438 235.605469 224.992188 235.722656 224.679688 C 235.820312 224.40625 235.9375 224.097656 236.070312 223.742188 C 236.203125 223.386719 236.367188 222.984375 236.566406 222.535156 L 240.773438 212.292969 Z M 240.78125 212.296875 "/><path style=" stroke:none;fill-rule:nonzero;fill:#ffffff;fill-opacity:1;" d="M 258.28125 211.511719 C 261.074219 211.511719 263.222656 212.152344 264.726562 213.433594 C 266.226562 214.714844 266.992188 216.691406 267.003906 219.378906 C 267.027344 220.964844 266.785156 222.3125 266.28125 223.421875 C 265.777344 224.535156 265.09375 225.445312 264.242188 226.148438 C 263.390625 226.851562 262.398438 227.371094 261.265625 227.703125 C 260.132812 228.027344 258.933594 228.199219 257.675781 228.199219 C 257.230469 228.199219 256.84375 228.199219 256.527344 228.183594 C 256.207031 228.175781 255.917969 228.167969 255.667969 228.167969 C 255.414062 228.167969 255.1875 228.167969 254.984375 228.15625 C 254.785156 228.148438 254.5625 228.140625 254.335938 228.140625 C 254.214844 228.140625 254.113281 228.140625 254.015625 228.15625 C 253.917969 228.164062 253.832031 228.167969 253.757812 228.167969 L 253.527344 228.167969 C 253.527344 228.167969 253.5625 228.148438 253.585938 228.109375 C 253.609375 228.074219 253.625 228.027344 253.628906 227.976562 C 253.636719 227.933594 253.644531 227.84375 253.644531 227.734375 L 253.644531 211.980469 C 253.644531 211.808594 253.625 211.683594 253.585938 211.601562 C 253.5625 211.566406 253.550781 211.542969 253.527344 211.542969 C 253.585938 211.566406 253.652344 211.574219 253.726562 211.574219 L 254.335938 211.574219 C 254.625 211.574219 254.898438 211.574219 255.148438 211.558594 C 255.402344 211.550781 255.667969 211.542969 255.949219 211.542969 C 256.230469 211.542969 256.554688 211.542969 256.917969 211.527344 C 257.289062 211.519531 257.742188 211.511719 258.289062 211.511719 Z M 257.398438 227.324219 C 258.273438 227.324219 259.183594 227.242188 260.140625 227.082031 C 261.097656 226.917969 261.96875 226.554688 262.769531 225.992188 C 263.5625 225.429688 264.214844 224.621094 264.710938 223.570312 C 265.214844 222.519531 265.457031 221.089844 265.4375 219.289062 C 265.414062 217.875 265.175781 216.71875 264.726562 215.824219 C 264.273438 214.929688 263.6875 214.222656 262.96875 213.71875 C 262.25 213.21875 261.445312 212.867188 260.546875 212.675781 C 259.652344 212.484375 258.742188 212.386719 257.835938 212.386719 C 257.371094 212.386719 256.964844 212.394531 256.613281 212.417969 C 256.265625 212.4375 255.976562 212.453125 255.742188 212.476562 C 255.46875 212.5 255.230469 212.511719 255.015625 212.535156 L 255.015625 226.488281 C 255.015625 226.777344 255.058594 226.976562 255.164062 227.082031 C 255.261719 227.183594 255.414062 227.25 255.628906 227.265625 C 255.84375 227.289062 256.097656 227.304688 256.386719 227.3125 C 256.675781 227.316406 257.015625 227.324219 257.398438 227.324219 Z M 257.398438 227.324219 "/><path style=" stroke:none;fill-rule:nonzero;fill:#ffffff;fill-opacity:1;" d="M 280.722656 227.734375 C 280.722656 227.851562 280.722656 227.933594 280.738281 227.976562 C 280.742188 228.027344 280.757812 228.066406 280.78125 228.109375 C 280.804688 228.148438 280.816406 228.167969 280.839844 228.167969 L 280.667969 228.167969 C 280.609375 228.167969 280.527344 228.167969 280.425781 228.15625 C 280.320312 228.148438 280.1875 228.140625 280.03125 228.140625 C 279.878906 228.140625 279.742188 228.140625 279.640625 228.15625 C 279.535156 228.164062 279.457031 228.167969 279.394531 228.167969 L 279.226562 228.167969 C 279.226562 228.167969 279.261719 228.148438 279.285156 228.109375 C 279.308594 228.074219 279.320312 228.027344 279.328125 227.976562 C 279.335938 227.933594 279.34375 227.84375 279.34375 227.734375 L 279.34375 211.980469 C 279.34375 211.808594 279.320312 211.683594 279.285156 211.601562 C 279.261719 211.566406 279.246094 211.542969 279.226562 211.542969 C 279.261719 211.566406 279.320312 211.574219 279.394531 211.574219 L 280.667969 211.574219 C 280.742188 211.574219 280.804688 211.566406 280.839844 211.542969 C 280.816406 211.542969 280.804688 211.566406 280.78125 211.601562 C 280.742188 211.675781 280.722656 211.800781 280.722656 211.980469 Z M 280.722656 227.734375 "/><path style=" stroke:none;fill-rule:nonzero;fill:#ffffff;fill-opacity:1;" d="M 302.539062 228.164062 L 299.636719 228.164062 C 298.84375 228.164062 298.058594 228.164062 297.289062 228.148438 C 296.519531 228.140625 295.925781 228.132812 295.519531 228.132812 C 295.421875 228.132812 295.328125 228.132812 295.230469 228.148438 C 295.132812 228.15625 295.042969 228.164062 294.972656 228.164062 L 294.710938 228.164062 C 294.710938 228.164062 294.75 228.140625 294.769531 228.101562 C 294.792969 228.066406 294.808594 228.023438 294.816406 227.96875 C 294.824219 227.925781 294.832031 227.835938 294.832031 227.726562 L 294.832031 211.972656 C 294.832031 211.800781 294.808594 211.675781 294.769531 211.59375 C 294.75 211.558594 294.734375 211.535156 294.710938 211.535156 C 294.785156 211.558594 294.867188 211.566406 294.941406 211.566406 L 299.554688 211.566406 C 300.445312 211.566406 301.390625 211.558594 302.398438 211.535156 L 302.25 212.550781 C 302.25 212.550781 302.230469 212.511719 302.191406 212.492188 C 302.117188 212.453125 302.007812 212.433594 301.875 212.433594 L 296.214844 212.433594 L 296.214844 218.957031 L 301.523438 218.957031 C 301.679688 218.957031 301.777344 218.933594 301.8125 218.898438 C 301.835938 218.875 301.84375 218.859375 301.84375 218.839844 L 301.84375 219.941406 C 301.84375 219.941406 301.835938 219.90625 301.8125 219.882812 C 301.777344 219.84375 301.679688 219.824219 301.523438 219.824219 L 296.214844 219.824219 L 296.214844 227.25 L 302.28125 227.25 C 302.4375 227.25 302.554688 227.238281 302.628906 227.207031 C 302.664062 227.191406 302.6875 227.175781 302.6875 227.164062 L 302.539062 228.148438 Z M 302.539062 228.164062 "/><path style=" stroke:none;fill-rule:nonzero;fill:#ffffff;fill-opacity:1;" d="M 315.1875 211.164062 L 324.933594 222.480469 C 325.378906 223.007812 325.75 223.453125 326.039062 223.816406 C 326.328125 224.179688 326.566406 224.480469 326.734375 224.710938 C 326.949219 224.984375 327.105469 225.214844 327.203125 225.40625 C 327.179688 225.214844 327.171875 224.957031 327.171875 224.621094 C 327.148438 224.347656 327.140625 224.007812 327.140625 223.59375 L 327.140625 211.972656 C 327.140625 211.800781 327.121094 211.675781 327.082031 211.59375 L 327.054688 211.535156 C 327.148438 211.558594 327.238281 211.566406 327.3125 211.566406 L 328.097656 211.566406 C 328.15625 211.566406 328.203125 211.558594 328.246094 211.535156 C 328.222656 211.535156 328.207031 211.558594 328.1875 211.59375 C 328.164062 211.632812 328.15625 211.757812 328.15625 211.972656 L 328.15625 228.480469 L 318.292969 217.054688 C 317.871094 216.570312 317.523438 216.15625 317.25 215.816406 C 316.972656 215.476562 316.75 215.195312 316.582031 214.957031 C 316.367188 214.707031 316.203125 214.484375 316.085938 214.289062 C 316.085938 214.484375 316.09375 214.734375 316.113281 215.046875 C 316.113281 215.320312 316.113281 215.652344 316.128906 216.0625 C 316.136719 216.46875 316.144531 216.957031 316.144531 217.542969 L 316.144531 227.726562 C 316.144531 227.941406 316.152344 228.066406 316.175781 228.101562 C 316.195312 228.140625 316.210938 228.164062 316.234375 228.164062 L 316.035156 228.164062 C 315.972656 228.164062 315.914062 228.164062 315.863281 228.148438 C 315.804688 228.140625 315.746094 228.132812 315.683594 228.132812 C 315.625 228.132812 315.566406 228.132812 315.5 228.148438 C 315.433594 228.15625 315.367188 228.164062 315.316406 228.164062 L 315.113281 228.164062 L 315.144531 228.101562 C 315.167969 228.066406 315.183594 228.023438 315.1875 227.96875 C 315.195312 227.925781 315.203125 227.835938 315.203125 227.726562 L 315.203125 211.15625 Z M 315.1875 211.164062 "/><path style=" stroke:none;fill-rule:nonzero;fill:#ffffff;fill-opacity:1;" d="M 352.382812 211.980469 C 352.382812 211.808594 352.359375 211.683594 352.324219 211.601562 C 352.300781 211.566406 352.285156 211.542969 352.261719 211.542969 C 352.335938 211.566406 352.417969 211.574219 352.492188 211.574219 L 353.308594 211.574219 C 353.382812 211.574219 353.457031 211.566406 353.507812 211.542969 C 353.484375 211.542969 353.472656 211.566406 353.449219 211.601562 C 353.410156 211.675781 353.390625 211.800781 353.390625 211.980469 L 353.390625 221.84375 C 353.390625 222.769531 353.300781 223.636719 353.128906 224.445312 C 352.960938 225.246094 352.648438 225.941406 352.203125 226.519531 C 351.761719 227.097656 351.136719 227.554688 350.332031 227.894531 C 349.53125 228.238281 348.507812 228.40625 347.273438 228.40625 C 346.300781 228.40625 345.457031 228.304688 344.730469 228.101562 C 344.003906 227.902344 343.398438 227.546875 342.917969 227.042969 C 342.4375 226.539062 342.074219 225.867188 341.828125 225.03125 C 341.585938 224.183594 341.464844 223.140625 341.464844 221.882812 L 341.464844 211.988281 C 341.464844 211.816406 341.441406 211.691406 341.40625 211.609375 C 341.382812 211.574219 341.371094 211.550781 341.347656 211.550781 C 341.421875 211.574219 341.503906 211.582031 341.578125 211.582031 L 342.738281 211.582031 C 342.8125 211.582031 342.894531 211.574219 342.96875 211.550781 C 342.945312 211.550781 342.933594 211.574219 342.910156 211.609375 C 342.871094 211.683594 342.851562 211.808594 342.851562 211.988281 L 342.851562 222.289062 C 342.851562 223.273438 342.945312 224.097656 343.140625 224.742188 C 343.332031 225.390625 343.628906 225.910156 344.019531 226.3125 C 344.414062 226.710938 344.925781 226.984375 345.546875 227.15625 C 346.167969 227.316406 346.910156 227.398438 347.78125 227.398438 C 349.25 227.398438 350.382812 226.976562 351.175781 226.140625 C 351.96875 225.296875 352.367188 223.917969 352.367188 222.007812 L 352.367188 212.003906 Z M 352.382812 211.980469 "/><path style=" stroke:none;fill-rule:nonzero;fill:#ffffff;fill-opacity:1;" d="M 389.425781 225.753906 C 389.464844 225.636719 389.546875 225.464844 389.65625 225.230469 C 389.753906 225.015625 389.894531 224.726562 390.078125 224.355469 C 390.265625 223.984375 390.515625 223.496094 390.847656 222.875 L 397.085938 211.179688 L 398.011719 227.511719 C 398.011719 227.667969 398.019531 227.785156 398.039062 227.875 C 398.0625 227.960938 398.078125 228.023438 398.097656 228.058594 C 398.121094 228.117188 398.136719 228.148438 398.160156 228.148438 L 397.898438 228.148438 C 397.824219 228.148438 397.738281 228.148438 397.65625 228.132812 C 397.566406 228.125 397.476562 228.117188 397.382812 228.117188 C 397.261719 228.117188 397.160156 228.117188 397.0625 228.132812 C 396.964844 228.140625 396.871094 228.148438 396.773438 228.148438 L 396.484375 228.148438 C 396.484375 228.148438 396.523438 228.117188 396.542969 228.058594 C 396.566406 228 396.574219 227.8125 396.574219 227.511719 L 396.167969 219.703125 C 396.128906 219.03125 396.097656 218.410156 396.09375 217.847656 C 396.085938 217.28125 396.078125 216.800781 396.078125 216.394531 L 396.078125 215.089844 C 395.980469 215.363281 395.832031 215.691406 395.640625 216.074219 C 395.484375 216.402344 395.269531 216.839844 395.003906 217.363281 C 394.730469 217.898438 394.402344 218.527344 394.019531 219.269531 L 389.175781 228.089844 L 384.796875 219.445312 C 384.375 218.59375 384.027344 217.90625 383.769531 217.371094 C 383.507812 216.839844 383.300781 216.410156 383.148438 216.082031 C 382.96875 215.710938 382.84375 215.425781 382.769531 215.214844 C 382.769531 215.566406 382.761719 215.964844 382.738281 216.410156 C 382.71875 216.792969 382.703125 217.246094 382.695312 217.757812 C 382.6875 218.269531 382.65625 218.839844 382.621094 219.453125 L 382.183594 227.519531 C 382.160156 227.671875 382.160156 227.792969 382.167969 227.882812 C 382.175781 227.96875 382.191406 228.027344 382.214844 228.066406 C 382.234375 228.125 382.25 228.15625 382.273438 228.15625 L 382.042969 228.15625 C 381.984375 228.15625 381.917969 228.15625 381.84375 228.140625 C 381.769531 228.132812 381.695312 228.125 381.644531 228.125 C 381.546875 228.125 381.464844 228.125 381.398438 228.140625 C 381.332031 228.148438 381.257812 228.15625 381.183594 228.15625 L 380.953125 228.15625 C 380.953125 228.15625 380.992188 228.125 381.011719 228.066406 C 381.050781 227.96875 381.082031 227.785156 381.101562 227.519531 L 382.058594 211.1875 L 388.035156 222.824219 C 388.25 223.265625 388.441406 223.667969 388.613281 224.015625 C 388.78125 224.363281 388.9375 224.675781 389.078125 224.941406 C 389.210938 225.25 389.339844 225.519531 389.457031 225.753906 Z M 389.425781 225.753906 "/><path style=" stroke:none;fill-rule:nonzero;fill:#ffffff;fill-opacity:1;" d="M 415.941406 210.699219 L 422.414062 227.4375 C 422.507812 227.761719 422.613281 227.976562 422.730469 228.074219 C 422.789062 228.132812 422.828125 228.164062 422.851562 228.164062 L 422.53125 228.164062 C 422.433594 228.164062 422.324219 228.164062 422.199219 228.148438 C 422.074219 228.140625 421.9375 228.132812 421.804688 228.132812 C 421.671875 228.132812 421.546875 228.132812 421.441406 228.148438 C 421.339844 228.15625 421.234375 228.164062 421.140625 228.164062 L 420.851562 228.164062 C 420.851562 228.164062 420.878906 228.089844 420.878906 227.992188 C 420.878906 227.894531 420.859375 227.761719 420.804688 227.585938 C 420.753906 227.40625 420.671875 227.164062 420.5625 226.828125 L 419.109375 222.96875 L 412.207031 222.96875 L 410.667969 226.828125 C 410.535156 227.15625 410.4375 227.40625 410.394531 227.585938 C 410.339844 227.753906 410.3125 227.894531 410.289062 227.992188 C 410.265625 228.089844 410.28125 228.148438 410.320312 228.164062 L 410.148438 228.164062 C 410.089844 228.164062 410.03125 228.164062 409.964844 228.148438 C 409.898438 228.140625 409.816406 228.132812 409.71875 228.132812 C 409.621094 228.132812 409.527344 228.132812 409.429688 228.148438 C 409.335938 228.15625 409.246094 228.164062 409.171875 228.164062 L 408.941406 228.164062 L 409.058594 228.042969 C 409.097656 228.007812 409.148438 227.941406 409.207031 227.84375 C 409.265625 227.746094 409.335938 227.597656 409.40625 227.40625 L 415.960938 210.699219 Z M 416.777344 216.585938 C 416.585938 216.0625 416.421875 215.609375 416.296875 215.222656 C 416.167969 214.839844 416.058594 214.503906 415.960938 214.238281 C 415.867188 213.929688 415.785156 213.675781 415.734375 213.484375 C 415.695312 213.660156 415.628906 213.890625 415.53125 214.179688 C 415.378906 214.625 415.082031 215.4375 414.636719 216.617188 L 412.519531 222.15625 L 418.8125 222.15625 L 416.785156 216.585938 Z M 412.6875 207.507812 L 418.953125 207.507812 L 418.953125 208.523438 L 412.6875 208.523438 Z M 412.6875 207.507812 "/><path style=" stroke:none;fill-rule:nonzero;fill:#ffffff;fill-opacity:1;" d="M 436.128906 225.785156 C 436.128906 226.40625 436.105469 226.960938 436.054688 227.453125 C 436.003906 227.949219 435.898438 228.390625 435.738281 228.785156 C 435.574219 229.175781 435.335938 229.53125 435.027344 229.84375 C 434.714844 230.15625 434.300781 230.4375 433.78125 230.6875 C 433.394531 230.867188 433.035156 231 432.707031 231.09375 C 432.382812 231.191406 432.109375 231.257812 431.894531 231.296875 L 431.664062 230.828125 C 431.839844 230.804688 432.019531 230.761719 432.210938 230.679688 C 432.367188 230.621094 432.539062 230.554688 432.722656 230.480469 C 432.90625 230.40625 433.09375 230.300781 433.285156 230.191406 C 433.824219 229.867188 434.203125 229.445312 434.417969 228.949219 C 434.632812 228.445312 434.738281 227.808594 434.738281 227.027344 L 434.738281 211.972656 C 434.738281 211.800781 434.714844 211.675781 434.675781 211.59375 C 434.65625 211.558594 434.640625 211.535156 434.617188 211.535156 C 434.65625 211.558594 434.714844 211.566406 434.789062 211.566406 L 436.0625 211.566406 C 436.136719 211.566406 436.195312 211.558594 436.234375 211.535156 C 436.210938 211.535156 436.195312 211.558594 436.171875 211.59375 C 436.136719 211.667969 436.113281 211.796875 436.113281 211.972656 L 436.113281 225.785156 Z M 436.128906 225.785156 "/><path style=" stroke:none;fill-rule:nonzero;fill:#ffffff;fill-opacity:1;" d="M 454.40625 210.699219 L 460.878906 227.4375 C 460.976562 227.761719 461.078125 227.976562 461.199219 228.074219 C 461.257812 228.132812 461.292969 228.164062 461.316406 228.164062 L 461 228.164062 C 460.902344 228.164062 460.789062 228.164062 460.664062 228.148438 C 460.539062 228.140625 460.40625 228.132812 460.273438 228.132812 C 460.140625 228.132812 460.011719 228.132812 459.910156 228.148438 C 459.804688 228.15625 459.703125 228.164062 459.605469 228.164062 L 459.316406 228.164062 C 459.316406 228.164062 459.347656 228.089844 459.347656 227.992188 C 459.347656 227.894531 459.324219 227.761719 459.273438 227.585938 C 459.222656 227.40625 459.140625 227.164062 459.027344 226.828125 L 457.578125 222.96875 L 450.675781 222.96875 L 449.132812 226.828125 C 449 227.15625 448.902344 227.40625 448.859375 227.585938 C 448.808594 227.753906 448.777344 227.894531 448.757812 227.992188 C 448.734375 228.089844 448.75 228.148438 448.785156 228.164062 L 448.617188 228.164062 C 448.554688 228.164062 448.496094 228.164062 448.429688 228.148438 C 448.363281 228.140625 448.28125 228.132812 448.1875 228.132812 C 448.089844 228.132812 447.992188 228.132812 447.898438 228.148438 C 447.800781 228.15625 447.710938 228.164062 447.636719 228.164062 L 447.410156 228.164062 L 447.527344 228.042969 C 447.5625 228.007812 447.617188 227.941406 447.675781 227.84375 C 447.734375 227.746094 447.800781 227.597656 447.875 227.40625 L 454.429688 210.699219 Z M 455.25 216.585938 C 455.058594 216.0625 454.894531 215.609375 454.769531 215.222656 C 454.644531 214.839844 454.53125 214.503906 454.4375 214.238281 C 454.339844 213.929688 454.257812 213.675781 454.207031 213.484375 C 454.171875 213.660156 454.101562 213.890625 454.007812 214.179688 C 453.851562 214.625 453.554688 215.4375 453.109375 216.617188 L 450.992188 222.15625 L 457.289062 222.15625 L 455.257812 216.585938 Z M 455.25 216.585938 "/><path style=" stroke:none;fill-rule:nonzero;fill:#ffffff;fill-opacity:1;" d="M 479.789062 213.253906 C 479.691406 213.023438 479.371094 212.800781 478.847656 212.582031 C 478.3125 212.359375 477.640625 212.238281 476.832031 212.238281 C 475.609375 212.238281 474.675781 212.519531 474.019531 213.089844 C 473.359375 213.660156 473.03125 214.476562 473.03125 215.535156 C 473.03125 216.328125 473.242188 216.957031 473.65625 217.417969 C 474.070312 217.882812 474.582031 218.261719 475.195312 218.558594 C 475.808594 218.851562 476.460938 219.121094 477.164062 219.355469 C 477.871094 219.585938 478.519531 219.882812 479.105469 220.238281 C 479.699219 220.59375 480.171875 221.050781 480.527344 221.617188 C 480.882812 222.179688 481.039062 222.925781 480.980469 223.875 C 480.921875 224.785156 480.699219 225.527344 480.3125 226.101562 C 479.929688 226.679688 479.445312 227.132812 478.875 227.464844 C 478.304688 227.792969 477.683594 228.023438 477.003906 228.148438 C 476.328125 228.273438 475.667969 228.332031 475.03125 228.332031 C 474.527344 228.332031 474.078125 228.296875 473.671875 228.214844 C 473.261719 228.140625 472.914062 228.050781 472.625 227.953125 C 472.277344 227.859375 471.964844 227.734375 471.699219 227.578125 L 471.871094 226.386719 C 471.964844 226.59375 472.308594 226.820312 472.886719 227.074219 C 473.460938 227.324219 474.253906 227.457031 475.261719 227.457031 C 475.789062 227.457031 476.292969 227.40625 476.789062 227.304688 C 477.285156 227.199219 477.726562 227.023438 478.121094 226.769531 C 478.511719 226.519531 478.839844 226.183594 479.089844 225.753906 C 479.34375 225.332031 479.484375 224.800781 479.527344 224.164062 C 479.585938 223.3125 479.4375 222.644531 479.078125 222.164062 C 478.722656 221.683594 478.246094 221.28125 477.667969 220.980469 C 477.089844 220.667969 476.460938 220.402344 475.78125 220.171875 C 475.105469 219.941406 474.460938 219.652344 473.863281 219.320312 C 473.261719 218.980469 472.765625 218.542969 472.367188 218 C 471.964844 217.460938 471.773438 216.726562 471.773438 215.800781 C 471.773438 214.972656 471.914062 214.269531 472.195312 213.707031 C 472.476562 213.136719 472.855469 212.675781 473.34375 212.328125 C 473.824219 211.980469 474.382812 211.734375 474.996094 211.585938 C 475.617188 211.441406 476.269531 211.371094 476.964844 211.371094 C 477.445312 211.371094 477.875 211.417969 478.238281 211.507812 C 478.609375 211.59375 478.929688 211.683594 479.195312 211.78125 C 479.503906 211.898438 479.765625 212.023438 479.980469 212.15625 L 479.78125 213.261719 Z M 479.789062 213.253906 "/><path style=" stroke:none;fill-rule:nonzero;fill:#ffffff;fill-opacity:1;" d="M 300.089844 126.292969 L 190.019531 126.292969 L 190.019531 42.9375 L 190.339844 42.703125 L 244.875 1.894531 L 300.089844 42.855469 Z M 191.621094 124.691406 L 298.496094 124.691406 L 298.496094 43.65625 L 244.890625 3.886719 L 191.628906 43.738281 L 191.628906 124.691406 Z M 191.621094 124.691406 "/><path style=" stroke:none;fill-rule:nonzero;fill:#ffffff;fill-opacity:1;" d="M 218.976562 69.480469 C 218.683594 69.480469 218.421875 69.289062 218.332031 69.007812 C 217.46875 66.214844 217.644531 63.890625 218.875 62.097656 C 220.902344 59.136719 225.019531 58.808594 225.199219 58.800781 C 225.53125 58.78125 225.84375 59.015625 225.910156 59.351562 C 226.472656 62.460938 226.027344 64.949219 224.578125 66.75 C 222.496094 69.332031 219.140625 69.472656 219 69.480469 C 218.992188 69.480469 218.984375 69.480469 218.976562 69.480469 Z M 224.6875 60.222656 C 223.578125 60.425781 221.222656 61.039062 219.984375 62.859375 C 219.082031 64.1875 218.910156 65.933594 219.472656 68.074219 C 220.378906 67.933594 222.289062 67.453125 223.546875 65.890625 C 224.636719 64.527344 225.019531 62.625 224.695312 60.222656 Z M 224.6875 60.222656 "/><path style=" stroke:none;fill-rule:nonzero;fill:#ffffff;fill-opacity:1;" d="M 212.484375 85.117188 C 212.335938 85.117188 212.1875 85.0625 212.0625 84.96875 C 209.78125 83.136719 208.625 81.109375 208.640625 78.945312 C 208.660156 75.355469 211.890625 72.777344 212.03125 72.671875 C 212.304688 72.457031 212.691406 72.488281 212.925781 72.734375 C 215.132812 74.992188 216.164062 77.300781 215.972656 79.605469 C 215.695312 82.910156 212.992188 84.90625 212.882812 84.988281 C 212.765625 85.078125 212.625 85.117188 212.492188 85.117188 Z M 212.402344 74.132812 C 211.59375 74.917969 209.988281 76.746094 209.980469 78.953125 C 209.980469 80.554688 210.808594 82.101562 212.476562 83.558594 C 213.148438 82.9375 214.460938 81.472656 214.625 79.472656 C 214.765625 77.730469 214.015625 75.941406 212.402344 74.132812 Z M 212.402344 74.132812 "/><path style=" stroke:none;fill-rule:nonzero;fill:#ffffff;fill-opacity:1;" d="M 215.621094 98.363281 C 214.550781 98.363281 213.785156 98.171875 213.71875 98.15625 C 213.421875 98.082031 213.222656 97.816406 213.214844 97.511719 C 213.1875 94.585938 214.023438 92.410156 215.710938 91.046875 C 218.503906 88.789062 222.546875 89.664062 222.71875 89.699219 C 223.050781 89.773438 223.273438 90.09375 223.238281 90.433594 C 222.886719 93.574219 221.746094 95.832031 219.84375 97.136719 C 218.40625 98.128906 216.816406 98.363281 215.621094 98.363281 Z M 214.570312 96.949219 C 215.480469 97.078125 217.445312 97.164062 219.097656 96.023438 C 220.535156 95.03125 221.445312 93.320312 221.820312 90.921875 C 220.703125 90.789062 218.273438 90.714844 216.554688 92.097656 C 215.3125 93.105469 214.644531 94.734375 214.570312 96.949219 Z M 214.570312 96.949219 "/><path style=" stroke:none;fill-rule:nonzero;fill:#ffffff;fill-opacity:1;" d="M 282.90625 102.699219 C 280.160156 102.699219 278.039062 101.933594 276.582031 100.421875 C 274.285156 98.039062 274.558594 94.691406 274.574219 94.550781 C 274.605469 94.246094 274.828125 94.003906 275.128906 93.949219 C 278.011719 93.441406 280.292969 93.914062 281.914062 95.359375 C 284.601562 97.742188 284.402344 101.875 284.386719 102.046875 C 284.367188 102.386719 284.089844 102.660156 283.75 102.683594 C 283.460938 102.699219 283.179688 102.703125 282.90625 102.703125 Z M 283.714844 102 Z M 283.714844 102 Z M 275.90625 95.1875 C 275.9375 96.105469 276.167969 98.0625 277.558594 99.496094 C 278.773438 100.75 280.617188 101.371094 283.039062 101.347656 C 282.988281 100.222656 282.667969 97.808594 281.019531 96.351562 C 279.816406 95.292969 278.101562 94.898438 275.90625 95.1875 Z M 275.90625 95.1875 "/><path style=" stroke:none;fill-rule:nonzero;fill:#ffffff;fill-opacity:1;" d="M 266.480469 86.550781 C 266.433594 86.550781 266.390625 86.550781 266.347656 86.539062 C 263.480469 85.953125 261.53125 84.671875 260.554688 82.738281 C 258.933594 79.53125 260.636719 75.769531 260.710938 75.605469 C 260.851562 75.296875 261.207031 75.140625 261.53125 75.25 C 264.53125 76.25 266.496094 77.84375 267.367188 79.984375 C 268.628906 83.050781 267.140625 86.054688 267.074219 86.183594 C 266.953125 86.410156 266.722656 86.550781 266.472656 86.550781 Z M 261.710938 76.746094 C 261.347656 77.8125 260.753906 80.175781 261.753906 82.136719 C 262.480469 83.566406 263.933594 84.558594 266.074219 85.101562 C 266.382812 84.234375 266.886719 82.332031 266.125 80.480469 C 265.457031 78.863281 263.976562 77.613281 261.710938 76.738281 Z M 261.710938 76.746094 "/><path style=" stroke:none;fill-rule:nonzero;fill:#ffffff;fill-opacity:1;" d="M 250.496094 68.183594 C 250.328125 68.183594 250.164062 68.125 250.039062 68 C 247.914062 65.992188 246.929688 63.882812 247.113281 61.71875 C 247.425781 58.144531 250.851562 55.839844 251 55.742188 C 251.289062 55.558594 251.667969 55.609375 251.890625 55.875 C 253.910156 58.304688 254.742188 60.699219 254.363281 62.972656 C 253.824219 66.246094 250.972656 68.015625 250.847656 68.089844 C 250.734375 68.15625 250.617188 68.183594 250.496094 68.183594 Z M 251.253906 57.238281 C 250.386719 57.957031 248.640625 59.652344 248.453125 61.851562 C 248.320312 63.453125 249.03125 65.058594 250.570312 66.644531 C 251.289062 66.074219 252.71875 64.71875 253.046875 62.742188 C 253.328125 61.015625 252.726562 59.171875 251.261719 57.238281 Z M 251.253906 57.238281 "/><path style=" stroke:none;fill-rule:nonzero;fill:#ffffff;fill-opacity:1;" d="M 264.84375 62.535156 C 262.738281 62.535156 261.101562 61.644531 261.015625 61.59375 C 260.746094 61.445312 260.613281 61.140625 260.6875 60.847656 C 261.382812 58.003906 262.738281 56.105469 264.710938 55.203125 C 267.976562 53.707031 271.671875 55.550781 271.828125 55.632812 C 272.128906 55.789062 272.269531 56.152344 272.152344 56.46875 C 271.035156 59.425781 269.367188 61.328125 267.207031 62.128906 C 266.390625 62.421875 265.589844 62.535156 264.851562 62.535156 Z M 262.132812 60.640625 C 262.984375 60.988281 264.867188 61.558594 266.746094 60.859375 C 268.382812 60.253906 269.695312 58.824219 270.648438 56.59375 C 269.597656 56.195312 267.257812 55.515625 265.257812 56.433594 C 263.800781 57.097656 262.753906 58.511719 262.132812 60.640625 Z M 262.132812 60.640625 "/><path style=" stroke:none;fill-rule:nonzero;fill:#ffffff;fill-opacity:1;" d="M 229.894531 79.753906 C 228.886719 79.753906 227.960938 79.539062 227.101562 79.109375 C 223.894531 77.496094 223.027344 73.449219 222.992188 73.28125 C 222.925781 72.949219 223.117188 72.613281 223.445312 72.503906 C 226.449219 71.53125 228.976562 71.644531 230.953125 72.84375 C 233.789062 74.5625 234.375 77.863281 234.398438 78.003906 C 234.449219 78.300781 234.292969 78.597656 234.019531 78.722656 C 232.539062 79.414062 231.160156 79.753906 229.894531 79.753906 Z M 224.472656 73.59375 C 224.8125 74.664062 225.738281 76.917969 227.710938 77.910156 C 229.140625 78.628906 230.902344 78.570312 232.945312 77.722656 C 232.6875 76.84375 231.960938 75.015625 230.242188 73.976562 C 228.746094 73.074219 226.804688 72.949219 224.472656 73.59375 Z M 223.652344 73.140625 Z M 223.652344 73.140625 "/><path style=" stroke:none;fill-rule:nonzero;fill:#ffffff;fill-opacity:1;" d="M 244.375 126.011719 C 244.003906 126.011719 243.699219 125.707031 243.699219 125.335938 L 243.699219 54.460938 C 243.699219 54.09375 244.003906 53.789062 244.375 53.789062 C 244.742188 53.789062 245.046875 54.09375 245.046875 54.460938 L 245.046875 125.335938 C 245.046875 125.707031 244.742188 126.011719 244.375 126.011719 Z M 244.375 126.011719 "/><path style=" stroke:none;fill-rule:nonzero;fill:#ffffff;fill-opacity:1;" d="M 243.796875 95.726562 C 243.742188 95.726562 243.691406 95.726562 243.640625 95.707031 C 226.214844 91.550781 217.429688 72.820312 215.148438 67.1875 C 215.113281 67.089844 215.082031 67.023438 215.066406 66.992188 C 214.917969 66.660156 215.066406 66.261719 215.394531 66.105469 C 215.726562 65.949219 216.121094 66.089844 216.28125 66.421875 C 216.296875 66.453125 216.335938 66.542969 216.394531 66.6875 C 218.238281 71.265625 220.867188 75.945312 223.777344 79.886719 C 229.582031 87.714844 236.367188 92.601562 243.945312 94.410156 C 244.304688 94.5 244.527344 94.863281 244.441406 95.21875 C 244.367188 95.527344 244.089844 95.734375 243.789062 95.734375 Z M 243.796875 95.726562 "/><path style=" stroke:none;fill-rule:nonzero;fill:#ffffff;fill-opacity:1;" d="M 236.90625 92.789062 C 236.539062 92.789062 236.234375 92.484375 236.234375 92.113281 C 236.234375 84.324219 234.980469 77.910156 233.929688 73.894531 C 232.789062 69.546875 231.628906 67.007812 231.613281 66.976562 C 231.457031 66.644531 231.605469 66.246094 231.9375 66.089844 C 232.277344 65.933594 232.671875 66.082031 232.828125 66.414062 C 232.878906 66.519531 234.042969 69.058594 235.210938 73.511719 C 236.292969 77.605469 237.574219 84.152344 237.574219 92.105469 C 237.574219 92.476562 237.269531 92.78125 236.902344 92.78125 Z M 236.90625 92.789062 "/><path style=" stroke:none;fill-rule:nonzero;fill:#ffffff;fill-opacity:1;" d="M 223.304688 89.101562 C 218.867188 89.101562 212.652344 88.101562 206.03125 83.910156 C 205.722656 83.707031 205.625 83.292969 205.824219 82.984375 C 206.023438 82.671875 206.441406 82.574219 206.75 82.773438 C 212.957031 86.699219 218.824219 87.632812 222.644531 87.730469 C 226.796875 87.828125 229.515625 86.980469 229.546875 86.972656 C 229.902344 86.863281 230.28125 87.054688 230.390625 87.410156 C 230.5 87.765625 230.308594 88.144531 229.953125 88.253906 C 229.738281 88.324219 227.207031 89.101562 223.304688 89.101562 Z M 223.304688 89.101562 "/><path style=" stroke:none;fill-rule:nonzero;fill:#ffffff;fill-opacity:1;" d="M 246.15625 101.1875 C 245.832031 101.1875 245.542969 100.941406 245.492188 100.609375 C 245.441406 100.238281 245.691406 99.898438 246.0625 99.847656 C 246.121094 99.839844 252.378906 98.890625 258.652344 95.253906 C 266.984375 90.417969 271.398438 83.367188 271.773438 74.296875 C 271.789062 73.925781 272.101562 73.628906 272.472656 73.652344 C 272.839844 73.664062 273.128906 73.976562 273.117188 74.347656 C 272.722656 83.789062 267.9375 91.425781 259.289062 96.433594 C 252.792969 100.1875 246.519531 101.136719 246.253906 101.171875 C 246.222656 101.171875 246.1875 101.171875 246.15625 101.171875 Z M 246.15625 101.1875 "/><path style=" stroke:none;fill-rule:nonzero;fill:#ffffff;fill-opacity:1;" d="M 255.113281 98.5 C 254.890625 98.5 254.675781 98.394531 254.550781 98.195312 C 246.015625 85.160156 255.40625 74.96875 255.496094 74.867188 C 255.75 74.597656 256.179688 74.585938 256.445312 74.835938 C 256.710938 75.085938 256.726562 75.515625 256.472656 75.785156 C 256.113281 76.167969 247.734375 85.324219 255.667969 97.453125 C 255.867188 97.765625 255.785156 98.179688 255.476562 98.386719 C 255.363281 98.460938 255.230469 98.5 255.105469 98.5 Z M 255.113281 98.5 "/><path style=" stroke:none;fill-rule:nonzero;fill:#ffffff;fill-opacity:1;" d="M 267.480469 95.460938 C 264.234375 95.460938 261.917969 94.871094 261.867188 94.855469 C 261.511719 94.757812 261.296875 94.394531 261.390625 94.03125 C 261.488281 93.675781 261.851562 93.460938 262.214844 93.550781 C 262.347656 93.589844 275.507812 96.914062 282.5 87.027344 C 282.714844 86.722656 283.136719 86.648438 283.433594 86.863281 C 283.734375 87.078125 283.808594 87.5 283.59375 87.796875 C 279.101562 94.160156 272.285156 95.445312 267.488281 95.445312 Z M 267.480469 95.460938 "/><path style=" stroke:none;fill-rule:nonzero;fill:#ffffff;fill-opacity:1;" d="M 247.914062 70.246094 C 245.921875 70.246094 244.460938 69.902344 244.328125 69.875 C 243.964844 69.785156 243.742188 69.421875 243.832031 69.066406 C 243.921875 68.703125 244.277344 68.480469 244.640625 68.570312 C 244.707031 68.585938 251.121094 70.066406 255.238281 66.535156 C 257.992188 64.171875 259.15625 60.089844 258.6875 54.410156 C 258.660156 54.039062 258.933594 53.714844 259.304688 53.683594 C 259.675781 53.65625 260 53.929688 260.03125 54.300781 C 260.53125 60.4375 259.207031 64.898438 256.105469 67.554688 C 253.550781 69.742188 250.335938 70.246094 247.90625 70.246094 Z M 247.914062 70.246094 "/></g></svg>