<?xml version="1.0" encoding="UTF-8"?><svg id="Layer_1" xmlns="http://www.w3.org/2000/svg" viewBox="0 0 1000 1000"><path d="M210.2,523.65c-.38-.87-1.59-1.74-3.65-2.62-2.06-.87-4.66-1.31-7.8-1.31-4.71,0-8.34,1.1-10.89,3.3-2.54,2.2-3.82,5.36-3.82,9.46,0,3.06.8,5.49,2.41,7.28,1.61,1.79,3.59,3.27,5.95,4.42,2.36,1.16,4.9,2.18,7.63,3.08,2.73.9,5.24,2.03,7.52,3.42,2.28,1.38,4.11,3.16,5.5,5.32,1.38,2.17,1.96,5.08,1.74,8.74-.22,3.51-1.09,6.38-2.58,8.62-1.5,2.24-3.35,3.99-5.55,5.26-2.21,1.27-4.62,2.15-7.24,2.63-2.62.48-5.16.73-7.63.73-1.95,0-3.7-.15-5.27-.45-1.57-.3-2.92-.63-4.04-1.01-1.35-.37-2.54-.86-3.59-1.46l.67-4.6c.37.8,1.68,1.69,3.93,2.68,2.24.98,5.31,1.47,9.2,1.47,2.02,0,3.98-.21,5.89-.62s3.63-1.1,5.16-2.07c1.53-.97,2.79-2.28,3.76-3.92.97-1.64,1.53-3.7,1.68-6.16.22-3.29-.36-5.86-1.74-7.73-1.39-1.87-3.2-3.4-5.44-4.59-2.24-1.19-4.68-2.24-7.29-3.14-2.62-.9-5.09-2-7.41-3.31-2.32-1.31-4.25-3.01-5.78-5.1-1.53-2.09-2.3-4.93-2.3-8.51,0-3.21.54-5.92,1.63-8.12,1.08-2.2,2.56-3.98,4.43-5.32,1.87-1.34,4-2.3,6.4-2.86,2.39-.56,4.94-.84,7.63-.84,1.87,0,3.52.17,4.94.5,1.42.34,2.65.69,3.7,1.07,1.2.45,2.21.94,3.03,1.46l-.79,4.26Z"/><path d="M235,579.65c0,.45.02.77.06.95.04.19.09.36.17.5.07.15.15.22.22.22h-.67c-.22,0-.54-.02-.95-.06-.41-.04-.92-.06-1.51-.06s-1.1.02-1.52.06c-.41.04-.73.06-.95.06h-.67c.07,0,.15-.07.22-.22.07-.15.13-.32.17-.5.04-.19.06-.5.06-.95v-60.93c0-.67-.08-1.16-.22-1.46-.08-.15-.15-.22-.22-.22.15.08.37.11.67.11h4.94c.3,0,.52-.04.67-.11-.08,0-.15.08-.22.22-.15.3-.22.79-.22,1.46v60.93Z"/><path d="M301.99,524.89c-.67-.9-1.74-1.66-3.2-2.3-1.46-.63-3.12-1.16-4.99-1.57-1.87-.41-3.82-.73-5.84-.95s-3.89-.34-5.61-.34c-3.59,0-7.03.5-10.32,1.51-3.29,1.01-6.17,2.66-8.64,4.94-2.47,2.28-4.42,5.22-5.84,8.81-1.42,3.59-2.13,7.97-2.13,13.13s.79,9.76,2.36,13.58c1.57,3.82,3.68,6.98,6.34,9.48,2.65,2.51,5.74,4.38,9.26,5.61,3.52,1.23,7.29,1.85,11.33,1.85,5.76,0,10.59-.71,14.48-2.13v-19.3c0-.67-.08-1.1-.22-1.29-.15-.19-.26-.32-.34-.39.07,0,.34.02.79.06.45.04,1.27.06,2.47.06,1.12,0,1.89-.02,2.3-.06.41-.04.65-.06.73-.06-.08.08-.15.19-.22.34-.08.15-.11.6-.11,1.35v21.1c-.67.3-1.67.66-2.97,1.07-1.31.41-2.88.82-4.71,1.23-1.83.41-3.89.75-6.17,1.01-2.28.26-4.7.39-7.24.39-5.39,0-10.21-.82-14.48-2.47-4.26-1.64-7.89-3.95-10.89-6.9-2.99-2.95-5.27-6.47-6.85-10.55-1.57-4.08-2.36-8.58-2.36-13.52,0-5.54.9-10.32,2.69-14.36,1.8-4.04,4.24-7.39,7.35-10.04,3.1-2.65,6.75-4.62,10.94-5.89,4.19-1.27,8.64-1.91,13.35-1.91,2.77,0,5.27.15,7.52.45,2.24.3,4.17.66,5.78,1.07,1.61.41,2.92.82,3.93,1.23,1.01.41,1.7.73,2.08.95l-.56,4.83Z"/><path d="M361.8,518.72c0-.67-.08-1.16-.22-1.46-.08-.15-.15-.22-.22-.22.3.08.6.11.9.11h3.14c.3,0,.56-.04.79-.11-.08,0-.15.08-.22.22-.15.3-.22.79-.22,1.46v38.15c0,3.59-.34,6.94-1.01,10.04-.67,3.11-1.87,5.78-3.59,8.02-1.72,2.24-4.13,4.02-7.24,5.33-3.11,1.31-7.05,1.96-11.84,1.96-3.74,0-7.01-.39-9.82-1.18-2.81-.79-5.14-2.15-7.01-4.1-1.87-1.94-3.27-4.54-4.21-7.8-.94-3.25-1.4-7.31-1.4-12.18v-38.27c0-.67-.08-1.16-.22-1.46-.08-.15-.15-.22-.22-.22.3.08.6.11.9.11h4.49c.3,0,.6-.04.9-.11-.08,0-.15.08-.22.22-.15.3-.22.79-.22,1.46v39.84c0,3.82.37,6.98,1.12,9.48.75,2.51,1.89,4.53,3.42,6.06,1.53,1.53,3.5,2.62,5.89,3.25,2.39.64,5.27.95,8.64.95,5.68,0,10.06-1.63,13.13-4.88,3.07-3.25,4.6-8.58,4.6-15.99v-38.71Z"/><path d="M414.43,581.33h-7.18c-2.24,0-4.94-.02-8.08-.06-3.14-.04-6.55-.06-10.21-.06-1.12,0-2.11.02-2.97.06-.86.04-1.59.06-2.19.06h-1.8c-.08,0-.02-.07.17-.22.19-.15.28-.63.28-1.46v-60.93c0-.67-.06-1.1-.17-1.29-.11-.19-.21-.32-.28-.39.15.08.37.11.67.11h4.83c.3,0,.52-.04.67-.11-.08.08-.15.19-.22.34-.08.15-.11.6-.11,1.35v59.14h25.36c.37,0,.65-.02.84-.06.19-.04.35-.09.51-.17l.45-.22-.56,3.93Z"/><path d="M443.19,516.92c10.8,0,19.1,2.47,24.91,7.41,5.81,4.94,8.75,12.61,8.83,23,.07,6.14-.86,11.35-2.81,15.65-1.95,4.3-4.57,7.82-7.87,10.55-3.3,2.73-7.14,4.73-11.53,6-4.39,1.27-9.02,1.91-13.89,1.91-1.73,0-3.21-.02-4.44-.06-1.24-.04-2.34-.06-3.32-.06s-1.86-.02-2.64-.06c-.79-.04-1.63-.06-2.53-.06-.45,0-.86.02-1.24.06-.38.04-.71.06-1.01.06h-.9c.07,0,.15-.07.22-.22.07-.15.13-.32.17-.5.04-.19.06-.5.06-.95v-60.93c0-.67-.08-1.16-.22-1.46-.08-.15-.15-.22-.22-.22.22.08.49.11.79.11h2.36c1.12,0,2.17-.02,3.15-.06.97-.04,2.01-.06,3.09-.06s2.34-.02,3.77-.06c1.42-.04,3.19-.06,5.29-.06ZM439.79,578.08c3.37,0,6.9-.32,10.6-.95,3.7-.63,7.09-2.04,10.16-4.21,3.07-2.17,5.57-5.29,7.52-9.37,1.94-4.08,2.88-9.59,2.81-16.55-.08-5.46-.99-9.93-2.75-13.41-1.76-3.48-4.02-6.19-6.79-8.14-2.77-1.94-5.89-3.29-9.37-4.04-3.48-.75-6.98-1.12-10.49-1.12-1.8,0-3.37.04-4.71.11-1.35.08-2.47.15-3.37.22-1.05.08-1.98.15-2.81.22v53.98c0,1.12.19,1.89.56,2.3.37.41.97.66,1.8.73.82.08,1.8.13,2.92.17,1.12.04,2.43.06,3.93.06Z"/><path d="M509.81,513.78l25.02,64.75c.37,1.27.79,2.1,1.23,2.47.22.22.37.34.45.34h-1.23c-.38,0-.8-.02-1.29-.06-.49-.04-.99-.06-1.51-.06s-.99.02-1.4.06c-.41.04-.8.06-1.18.06h-1.12c.07-.07.11-.3.11-.67s-.09-.9-.28-1.57c-.19-.67-.51-1.65-.95-2.92l-5.61-14.92h-26.71l-5.95,14.92c-.52,1.27-.88,2.24-1.07,2.92-.19.67-.32,1.2-.39,1.57-.08.38-.04.6.11.67h-.67c-.22,0-.47-.02-.73-.06-.26-.04-.58-.06-.95-.06s-.75.02-1.12.06c-.38.04-.71.06-1.01.06h-.9l.45-.45c.15-.15.34-.41.56-.79.22-.37.49-.93.79-1.68l25.36-64.64ZM513.07,536.56c-.75-2.02-1.37-3.78-1.85-5.27-.49-1.5-.92-2.77-1.29-3.82-.38-1.2-.67-2.17-.9-2.92-.15.67-.41,1.57-.79,2.69-.6,1.72-1.76,4.86-3.48,9.43l-8.19,21.43h24.35l-7.86-21.55Z"/><path d="M574.34,523.65c-.38-.87-1.59-1.74-3.65-2.62-2.06-.87-4.66-1.31-7.8-1.31-4.71,0-8.34,1.1-10.89,3.3-2.54,2.2-3.82,5.36-3.82,9.46,0,3.06.8,5.49,2.41,7.28,1.61,1.79,3.59,3.27,5.95,4.42,2.36,1.16,4.9,2.18,7.63,3.08,2.73.9,5.24,2.03,7.52,3.42,2.28,1.38,4.11,3.16,5.5,5.32,1.38,2.17,1.96,5.08,1.74,8.74-.22,3.51-1.09,6.38-2.58,8.62-1.5,2.24-3.35,3.99-5.55,5.26-2.21,1.27-4.62,2.15-7.24,2.63-2.62.48-5.16.73-7.63.73-1.95,0-3.7-.15-5.27-.45-1.57-.3-2.92-.63-4.04-1.01-1.35-.37-2.54-.86-3.59-1.46l.67-4.6c.37.8,1.68,1.69,3.93,2.68,2.24.98,5.31,1.47,9.2,1.47,2.02,0,3.98-.21,5.89-.62s3.63-1.1,5.16-2.07c1.53-.97,2.79-2.28,3.76-3.92.97-1.64,1.53-3.7,1.68-6.16.22-3.29-.36-5.86-1.74-7.73-1.39-1.87-3.2-3.4-5.44-4.59-2.24-1.19-4.68-2.24-7.29-3.14-2.62-.9-5.09-2-7.41-3.31-2.32-1.31-4.25-3.01-5.78-5.1-1.53-2.09-2.3-4.93-2.3-8.51,0-3.21.54-5.92,1.63-8.12,1.08-2.2,2.56-3.98,4.43-5.32,1.87-1.34,4-2.3,6.4-2.86,2.39-.56,4.94-.84,7.63-.84,1.87,0,3.52.17,4.94.5,1.42.34,2.65.69,3.7,1.07,1.2.45,2.21.94,3.03,1.46l-.79,4.26Z"/><path d="M645.93,523.65c-.38-.87-1.59-1.74-3.65-2.62-2.06-.87-4.66-1.31-7.8-1.31-4.71,0-8.34,1.1-10.89,3.3-2.54,2.2-3.82,5.36-3.82,9.46,0,3.06.8,5.49,2.41,7.28,1.61,1.79,3.59,3.27,5.95,4.42,2.36,1.16,4.9,2.18,7.63,3.08,2.73.9,5.24,2.03,7.52,3.42,2.28,1.38,4.11,3.16,5.5,5.32,1.38,2.17,1.96,5.08,1.74,8.74-.22,3.51-1.09,6.38-2.58,8.62-1.5,2.24-3.35,3.99-5.55,5.26-2.21,1.27-4.62,2.15-7.24,2.63-2.62.48-5.16.73-7.63.73-1.95,0-3.7-.15-5.27-.45-1.57-.3-2.92-.63-4.04-1.01-1.35-.37-2.54-.86-3.59-1.46l.67-4.6c.37.8,1.68,1.69,3.93,2.68,2.24.98,5.31,1.47,9.2,1.47,2.02,0,3.98-.21,5.89-.62s3.63-1.1,5.16-2.07c1.53-.97,2.79-2.28,3.76-3.92.97-1.64,1.53-3.7,1.68-6.16.22-3.29-.36-5.86-1.74-7.73-1.39-1.87-3.2-3.4-5.44-4.59-2.24-1.19-4.68-2.24-7.29-3.14-2.62-.9-5.09-2-7.41-3.31-2.32-1.31-4.25-3.01-5.78-5.1-1.53-2.09-2.3-4.93-2.3-8.51,0-3.21.54-5.92,1.63-8.12,1.08-2.2,2.56-3.98,4.43-5.32,1.87-1.34,4-2.3,6.4-2.86,2.39-.56,4.94-.84,7.63-.84,1.87,0,3.52.17,4.94.5,1.42.34,2.65.69,3.7,1.07,1.2.45,2.21.94,3.03,1.46l-.79,4.26Z"/><path d="M670.73,579.65c0,.45.02.77.06.95.04.19.09.36.17.5.07.15.15.22.22.22h-.67c-.22,0-.54-.02-.95-.06-.41-.04-.92-.06-1.51-.06s-1.1.02-1.52.06c-.41.04-.73.06-.95.06h-.67c.07,0,.15-.07.22-.22.07-.15.13-.32.17-.5.04-.19.06-.5.06-.95v-60.93c0-.67-.08-1.16-.22-1.46-.08-.15-.15-.22-.22-.22.15.08.37.11.67.11h4.94c.3,0,.52-.04.67-.11-.08,0-.15.08-.22.22-.15.3-.22.79-.22,1.46v60.93ZM704.06,575.95c1.05,1.27,1.94,2.26,2.69,2.97.75.71,1.35,1.25,1.8,1.63.52.38.93.64,1.23.79h-1.12c-.38,0-.88-.02-1.51-.06-.64-.04-1.4-.06-2.3-.06-.75,0-1.35.02-1.8.06-.45.04-.82.06-1.12.06h-.67c0-.22-.08-.49-.22-.79-.15-.3-.39-.65-.73-1.07-.34-.41-.8-.99-1.4-1.74l-25.81-30.19,25.36-27.61c1.2-1.27,1.91-2.09,2.13-2.47.15-.22.19-.37.11-.45.37.08.71.11,1.01.11h4.38c.3,0,.63-.04,1.01-.11-.15,0-.38.08-.67.22-.45.22-1.09.75-1.91,1.57l-25.81,27.6,25.36,29.51Z"/><path d="M738.62,513.78l25.02,64.75c.37,1.27.79,2.1,1.23,2.47.22.22.37.34.45.34h-1.23c-.38,0-.8-.02-1.29-.06-.49-.04-.99-.06-1.51-.06s-.99.02-1.4.06c-.41.04-.8.06-1.18.06h-1.12c.07-.07.11-.3.11-.67s-.09-.9-.28-1.57c-.19-.67-.51-1.65-.95-2.92l-5.61-14.92h-26.71l-5.95,14.92c-.52,1.27-.88,2.24-1.07,2.92-.19.67-.32,1.2-.39,1.57-.08.38-.04.6.11.67h-.67c-.22,0-.47-.02-.73-.06-.26-.04-.58-.06-.95-.06s-.75.02-1.12.06c-.38.04-.71.06-1.01.06h-.9l.45-.45c.15-.15.34-.41.56-.79.22-.37.49-.93.79-1.68l25.36-64.64ZM741.87,536.56c-.75-2.02-1.37-3.78-1.85-5.27-.49-1.5-.92-2.77-1.29-3.82-.38-1.2-.67-2.17-.9-2.92-.15.67-.41,1.57-.79,2.69-.6,1.72-1.76,4.86-3.48,9.43l-8.19,21.43h24.35l-7.86-21.55Z"/><path d="M788.78,520.51v59.14c0,.75.06,1.21.17,1.4.11.19.21.28.28.28h-.67c-.22,0-.54-.02-.95-.06-.41-.04-.92-.06-1.51-.06-1.2,0-2,.02-2.41.06-.41.04-.66.06-.73.06.07,0,.15-.07.22-.22.07-.15.13-.32.17-.5.04-.19.06-.5.06-.95v-59.14h-19.19c-.6,0-.99.04-1.18.13-.19.08-.32.15-.39.21l.45-3.93c.52.08,1.72.11,3.59.11,1.57.08,3.87.11,6.9.11h12.62c5.24,0,9.28-.02,12.12-.06,2.84-.04,4.96-.06,6.34-.06s2.32-.02,2.81-.06c.49-.04,1.03-.06,1.63-.06l.45,4.04c0-.07-.09-.17-.28-.28-.19-.11-.62-.17-1.29-.17h-19.19Z"/><path d="M823.79,579.65c0,.45.02.77.06.95.04.19.09.36.17.5.07.15.15.22.22.22h-.67c-.22,0-.54-.02-.95-.06-.41-.04-.92-.06-1.51-.06s-1.1.02-1.52.06c-.41.04-.73.06-.95.06h-.67c.07,0,.15-.07.22-.22.07-.15.13-.32.17-.5.04-.19.06-.5.06-.95v-60.93c0-.67-.08-1.16-.22-1.46-.08-.15-.15-.22-.22-.22.15.08.37.11.67.11h4.94c.3,0,.52-.04.67-.11-.08,0-.15.08-.22.22-.15.3-.22.79-.22,1.46v60.93Z"/><path d="M185.5,598.92c3.77,0,6.67.86,8.7,2.59s3.06,4.4,3.08,8.03c.03,2.14-.3,3.96-.98,5.46-.68,1.5-1.6,2.73-2.75,3.68s-2.49,1.65-4.02,2.1c-1.53.44-3.15.67-4.85.67-.6,0-1.12,0-1.55-.02-.43-.01-.82-.02-1.16-.02s-.65,0-.92-.02c-.27-.01-.57-.02-.88-.02-.16,0-.3,0-.43.02-.13.01-.25.02-.35.02h-.31s.05-.03.08-.08c.03-.05.05-.11.06-.18.01-.06.02-.18.02-.33v-21.27c0-.23-.03-.4-.08-.51-.03-.05-.05-.08-.08-.08.08.03.17.04.27.04h.82c.39,0,.76,0,1.1-.02.34-.01.7-.02,1.08-.02s.82,0,1.31-.02c.5-.01,1.11-.02,1.85-.02ZM184.32,620.27c1.18,0,2.41-.11,3.7-.33,1.29-.22,2.47-.71,3.55-1.47,1.07-.76,1.95-1.85,2.62-3.27.68-1.42,1.01-3.35.98-5.78-.03-1.91-.35-3.47-.96-4.68-.61-1.21-1.4-2.16-2.37-2.84-.97-.68-2.06-1.15-3.27-1.41-1.21-.26-2.44-.39-3.66-.39-.63,0-1.18.01-1.65.04-.47.03-.86.05-1.18.08-.37.03-.69.05-.98.08v18.84c0,.39.06.66.2.8.13.14.34.23.63.25.29.03.63.05,1.02.06.39.01.85.02,1.37.02Z"/><path d="M215.81,620.82c0,.16,0,.27.02.33.01.07.03.12.06.18.03.05.05.08.08.08h-.23c-.08,0-.19,0-.33-.02-.14-.01-.32-.02-.53-.02s-.39,0-.53.02c-.14.01-.25.02-.33.02h-.23s.05-.03.08-.08c.03-.05.05-.11.06-.18.01-.06.02-.18.02-.33v-21.27c0-.23-.03-.4-.08-.51-.03-.05-.05-.08-.08-.08.05.03.13.04.23.04h1.72c.1,0,.18-.01.23-.04-.03,0-.05.03-.08.08-.05.1-.08.27-.08.51v21.27Z"/><path d="M233.2,598.96h15.28l-13.94,21.27h12.3c.29,0,.52,0,.69-.02.17-.01.29-.03.37-.06.1-.03.16-.05.16-.08l-.2,1.33h-16.37l13.98-21.27h-11.44c-.26,0-.46,0-.59.02-.13.01-.23.03-.31.06-.1.03-.16.05-.16.08l.23-1.33Z"/><path d="M271.04,597.82l8.74,22.6c.13.44.27.73.43.86.08.08.13.12.16.12h-.43c-.13,0-.28,0-.45-.02-.17-.01-.35-.02-.53-.02s-.35,0-.49.02c-.14.01-.28.02-.41.02h-.39s.04-.1.04-.23-.03-.31-.1-.55c-.07-.24-.18-.57-.33-1.02l-1.96-5.21h-9.32l-2.08,5.21c-.18.44-.31.78-.37,1.02-.07.23-.11.42-.14.55-.03.13-.01.21.04.23h-.23c-.08,0-.16,0-.25-.02-.09-.01-.2-.02-.33-.02s-.26,0-.39.02c-.13.01-.25.02-.35.02h-.31l.16-.16c.05-.05.12-.14.2-.27.08-.13.17-.33.27-.59l8.85-22.56ZM272.18,605.77c-.26-.71-.48-1.32-.65-1.84-.17-.52-.32-.97-.45-1.33-.13-.42-.24-.76-.31-1.02-.05.24-.14.55-.27.94-.21.6-.61,1.7-1.21,3.29l-2.86,7.48h8.5l-2.74-7.52Z"/><path d="M297.75,620.82c0,.16,0,.27.02.33.01.07.03.12.06.18.03.05.05.08.08.08h-.23c-.08,0-.19,0-.33-.02-.14-.01-.32-.02-.53-.02s-.39,0-.53.02c-.14.01-.25.02-.33.02h-.23s.05-.03.08-.08c.03-.05.05-.11.06-.18.01-.06.02-.18.02-.33v-21.27c0-.23-.03-.4-.08-.51-.03-.05-.05-.08-.08-.08.05.03.13.04.23.04h1.72c.1,0,.18-.01.23-.04-.03,0-.05.03-.08.08-.05.1-.08.27-.08.51v21.27Z"/><path d="M316.79,598.45l13.16,15.28c.6.71,1.1,1.31,1.49,1.8s.71.9.94,1.21c.29.37.5.68.63.94-.03-.26-.04-.61-.04-1.06-.03-.37-.04-.83-.04-1.39v-15.69c0-.23-.03-.4-.08-.51l-.04-.08c.13.03.25.04.35.04h1.06c.08,0,.14-.01.2-.04-.03,0-.05.03-.08.08-.03.05-.04.22-.04.51v22.29l-13.32-15.43c-.57-.65-1.04-1.21-1.41-1.67-.37-.46-.67-.84-.9-1.16-.29-.34-.51-.64-.67-.9,0,.26.01.6.04,1.02,0,.37,0,.82.02,1.37.01.55.02,1.21.02,2v13.75c0,.29.01.46.04.51.03.05.05.08.08.08h-.27c-.08,0-.16,0-.23-.02-.08-.01-.16-.02-.24-.02s-.16,0-.25.02c-.09.01-.18.02-.25.02h-.27l.04-.08c.03-.05.05-.11.06-.18.01-.06.02-.18.02-.33v-22.37Z"/><path d="M358.86,597.82l8.74,22.6c.13.44.27.73.43.86.08.08.13.12.16.12h-.43c-.13,0-.28,0-.45-.02-.17-.01-.35-.02-.53-.02s-.35,0-.49.02c-.14.01-.28.02-.41.02h-.39s.04-.1.04-.23-.03-.31-.1-.55c-.07-.24-.18-.57-.33-1.02l-1.96-5.21h-9.32l-2.08,5.21c-.18.44-.31.78-.37,1.02-.07.23-.11.42-.14.55-.03.13-.01.21.04.23h-.23c-.08,0-.16,0-.25-.02-.09-.01-.2-.02-.33-.02s-.26,0-.39.02c-.13.01-.25.02-.35.02h-.31l.16-.16c.05-.05.12-.14.2-.27.08-.13.17-.33.27-.59l8.85-22.56ZM360,605.77c-.26-.71-.48-1.32-.65-1.84-.17-.52-.32-.97-.45-1.33-.13-.42-.24-.76-.31-1.02-.05.24-.14.55-.27.94-.21.6-.61,1.7-1.21,3.29l-2.86,7.48h8.5l-2.74-7.52Z"/><path d="M409.73,621.44c-.62,0-1.29-.01-1.99-.04-.7-.03-1.56-.04-2.58-.04-.29,0-.51,0-.68.02-.17.01-.31.02-.41.02.03,0,.05-.03.08-.08.05-.1.08-.29.08-.55v-21.23c0-.23-.03-.4-.08-.51-.03-.05-.05-.08-.08-.08.1.03.21.04.31.04h.78c.6,0,1.25-.01,1.95-.04s1.61-.04,2.73-.04c2.03,0,3.6.35,4.7,1.06,1.11.71,1.66,1.97,1.66,3.8,0,1.07-.14,1.96-.43,2.66-.29.71-.66,1.27-1.13,1.7-.47.43-.98.74-1.54.94s-1.11.32-1.66.37v.08c.55.05,1.16.16,1.84.33.68.17,1.32.45,1.93.84s1.12.91,1.52,1.57c.4.65.61,1.49.61,2.51,0,1.36-.22,2.47-.66,3.33-.44.86-1.03,1.54-1.76,2.04-.73.5-1.54.84-2.44,1.02-.9.18-1.82.27-2.75.27ZM406.1,608.99c.18.03.39.04.63.04.21.03.45.04.72.04h.88c.94,0,1.78-.05,2.53-.16.74-.1,1.37-.33,1.88-.67.51-.34.9-.82,1.18-1.45.27-.63.41-1.46.41-2.51,0-.91-.13-1.65-.39-2.21-.26-.56-.62-.99-1.08-1.29-.46-.3-1-.5-1.63-.61-.63-.1-1.29-.16-2-.16-.44,0-.86.01-1.23.04-.38.03-.71.05-1,.08-.31.03-.61.05-.9.08v8.77ZM408.79,610.08c-.55,0-.99,0-1.33.02s-.61.02-.82.02c-.23.03-.42.04-.55.04v9.24c0,.29.06.48.18.57.12.09.28.16.49.22.26.05.59.09.99.12.4.03.88.04,1.42.04.73,0,1.46-.06,2.18-.18.73-.12,1.38-.37,1.95-.76.57-.39,1.03-.95,1.38-1.68.35-.73.53-1.71.53-2.94,0-1.02-.18-1.84-.55-2.47-.36-.63-.85-1.1-1.46-1.43-.61-.33-1.3-.54-2.07-.65-.77-.1-1.55-.16-2.36-.16Z"/><path d="M437.79,610c.6-.03,1.32-.12,2.15-.27.84-.16,1.64-.43,2.41-.82.77-.39,1.42-.93,1.96-1.61.53-.68.8-1.58.8-2.7s-.17-1.91-.51-2.51c-.34-.6-.79-1.05-1.35-1.35-.56-.3-1.22-.48-1.98-.55-.76-.06-1.55-.1-2.39-.1-.44,0-.82,0-1.14.02-.31.01-.59.03-.82.06-.29.03-.52.04-.71.04v20.6c0,.23.01.39.04.47.03.08.05.12.08.12-.03,0-.13,0-.31-.02-.18-.01-.43-.02-.74-.02-.29,0-.54,0-.74.02-.21.01-.33.02-.35.02.03,0,.06-.03.1-.08s.06-.22.06-.51v-21.27c0-.23-.02-.39-.06-.45-.04-.06-.07-.11-.1-.14.03,0,.14,0,.35.02.21.01.46.02.75.02.68,0,1.41-.01,2.2-.04.79-.03,1.81-.04,3.06-.04.89,0,1.74.09,2.55.25.81.17,1.52.46,2.12.86.6.4,1.09.95,1.45,1.65.37.69.55,1.55.55,2.57,0,1.17-.23,2.15-.69,2.92-.46.77-1.03,1.38-1.71,1.84-.68.46-1.42.8-2.22,1.04-.8.24-1.53.41-2.18.51l8.21,9.6c.47.55.8.89.98,1.02.18.13.3.21.35.23h-2.86l-9.32-11.4Z"/><path d="M462.54,593.51h8.46v1.37h-8.46v-1.37ZM467.56,620.82c0,.16,0,.27.02.33.01.07.03.12.06.18.03.05.05.08.08.08h-.23c-.08,0-.19,0-.33-.02-.14-.01-.32-.02-.53-.02s-.39,0-.53.02c-.14.01-.25.02-.33.02h-.23s.05-.03.08-.08c.03-.05.05-.11.06-.18.01-.06.02-.18.02-.33v-21.27c0-.23-.03-.4-.08-.51-.03-.05-.05-.08-.08-.08.05.03.13.04.23.04h1.72c.1,0,.18-.01.23-.04-.03,0-.05.03-.08.08-.05.1-.08.27-.08.51v21.27Z"/><path d="M499.8,599.98c.18-.47.27-.77.27-.9,0-.08-.01-.12-.04-.12h1.84s-.05.03-.08.08c-.08.08-.17.23-.27.47l-9.21,22.41-8.74-22.33c-.1-.29-.2-.47-.27-.55-.05-.05-.09-.08-.12-.08.13.03.26.04.39.04h1.76c.1,0,.21-.01.31-.04-.03,0-.04.05-.04.16,0,.08.01.19.04.33.03.14.09.35.2.61l5.41,13.98c.21.6.4,1.13.57,1.59.17.46.31.86.41,1.19.1.39.21.73.31,1.02.13-.34.27-.72.43-1.14.13-.37.29-.79.47-1.27.18-.48.4-1.02.67-1.63l5.68-13.83Z"/><path d="M523.43,598.92c3.77,0,6.67.86,8.7,2.59s3.06,4.4,3.08,8.03c.03,2.14-.3,3.96-.98,5.46-.68,1.5-1.6,2.73-2.75,3.68s-2.49,1.65-4.02,2.1c-1.53.44-3.15.67-4.85.67-.6,0-1.12,0-1.55-.02-.43-.01-.82-.02-1.16-.02s-.65,0-.92-.02c-.27-.01-.57-.02-.88-.02-.16,0-.3,0-.43.02-.13.01-.25.02-.35.02h-.31s.05-.03.08-.08c.03-.05.05-.11.06-.18.01-.06.02-.18.02-.33v-21.27c0-.23-.03-.4-.08-.51-.03-.05-.05-.08-.08-.08.08.03.17.04.27.04h.82c.39,0,.76,0,1.1-.02.34-.01.7-.02,1.08-.02s.82,0,1.31-.02c.5-.01,1.11-.02,1.85-.02ZM522.24,620.27c1.18,0,2.41-.11,3.7-.33,1.29-.22,2.47-.71,3.55-1.47,1.07-.76,1.95-1.85,2.62-3.27.68-1.42,1.01-3.35.98-5.78-.03-1.91-.35-3.47-.96-4.68-.61-1.21-1.4-2.16-2.37-2.84-.97-.68-2.06-1.15-3.27-1.41-1.21-.26-2.44-.39-3.66-.39-.63,0-1.18.01-1.65.04-.47.03-.86.05-1.18.08-.37.03-.69.05-.98.08v18.84c0,.39.06.66.2.8.13.14.34.23.63.25.29.03.63.05,1.02.06.39.01.85.02,1.37.02Z"/><path d="M553.73,620.82c0,.16,0,.27.02.33.01.07.03.12.06.18.03.05.05.08.08.08h-.23c-.08,0-.19,0-.33-.02-.14-.01-.32-.02-.53-.02s-.39,0-.53.02c-.14.01-.25.02-.33.02h-.23s.05-.03.08-.08c.03-.05.05-.11.06-.18.01-.06.02-.18.02-.33v-21.27c0-.23-.03-.4-.08-.51-.03-.05-.05-.08-.08-.08.05.03.13.04.23.04h1.72c.1,0,.18-.01.23-.04-.03,0-.05.03-.08.08-.05.1-.08.27-.08.51v21.27Z"/><path d="M583.19,621.4h-3.92c-1.07,0-2.13,0-3.17-.02-1.04-.01-1.84-.02-2.39-.02-.13,0-.26,0-.39.02-.13.01-.25.02-.35.02h-.35s.05-.03.08-.08c.03-.05.05-.11.06-.18.01-.06.02-.18.02-.33v-21.27c0-.23-.03-.4-.08-.51-.03-.05-.05-.08-.08-.08.1.03.21.04.31.04h6.23c1.2,0,2.48-.01,3.84-.04l-.2,1.37s-.03-.05-.08-.08c-.1-.05-.25-.08-.43-.08h-7.64v8.81h7.17c.21,0,.34-.03.39-.08.03-.03.04-.05.04-.08v1.49s-.01-.05-.04-.08c-.05-.05-.18-.08-.39-.08h-7.17v10.03h8.19c.21,0,.37-.02.47-.06.05-.02.08-.04.08-.06l-.2,1.33Z"/><path d="M600.27,598.45l13.16,15.28c.6.71,1.1,1.31,1.49,1.8s.71.9.94,1.21c.29.37.5.68.63.94-.03-.26-.04-.61-.04-1.06-.03-.37-.04-.83-.04-1.39v-15.69c0-.23-.03-.4-.08-.51l-.04-.08c.13.03.25.04.35.04h1.06c.08,0,.14-.01.2-.04-.03,0-.05.03-.08.08-.03.05-.04.22-.04.51v22.29l-13.32-15.43c-.57-.65-1.04-1.21-1.41-1.67-.37-.46-.67-.84-.9-1.16-.29-.34-.51-.64-.67-.9,0,.26.01.6.04,1.02,0,.37,0,.82.02,1.37.01.55.02,1.21.02,2v13.75c0,.29.01.46.04.51.03.05.05.08.08.08h-.27c-.08,0-.16,0-.23-.02-.08-.01-.16-.02-.24-.02s-.16,0-.25.02c-.09.01-.18.02-.25.02h-.27l.04-.08c.03-.05.05-.11.06-.18.01-.06.02-.18.02-.33v-22.37Z"/><path d="M650.49,599.55c0-.23-.03-.4-.08-.51-.03-.05-.05-.08-.08-.08.1.03.21.04.31.04h1.1c.1,0,.2-.01.27-.04-.03,0-.05.03-.08.08-.05.1-.08.27-.08.51v13.32c0,1.25-.12,2.42-.35,3.51-.23,1.08-.65,2.02-1.25,2.8-.6.78-1.44,1.4-2.53,1.86-1.08.46-2.46.69-4.13.69-1.31,0-2.45-.14-3.43-.41-.98-.27-1.8-.75-2.45-1.43-.65-.68-1.14-1.59-1.47-2.72-.33-1.14-.49-2.55-.49-4.25v-13.36c0-.23-.03-.4-.08-.51-.03-.05-.05-.08-.08-.08.1.03.21.04.31.04h1.57c.1,0,.21-.01.31-.04-.03,0-.05.03-.08.08-.05.1-.08.27-.08.51v13.91c0,1.33.13,2.44.39,3.31.26.88.66,1.58,1.19,2.12.53.54,1.22.91,2.06,1.14.84.22,1.84.33,3.02.33,1.98,0,3.51-.57,4.58-1.7,1.07-1.14,1.61-3,1.61-5.58v-13.51Z"/><path d="M700.51,618.15c.05-.16.16-.39.31-.71.13-.29.32-.68.57-1.18.25-.5.59-1.16,1.04-2l8.42-15.79,1.25,22.05c0,.21.01.37.04.49.03.12.05.2.08.25.03.08.05.12.08.12h-.35c-.1,0-.22,0-.33-.02-.12-.01-.24-.02-.37-.02-.16,0-.3,0-.43.02-.13.01-.26.02-.39.02h-.39s.05-.04.08-.12c.03-.08.04-.33.04-.74l-.55-10.54c-.05-.91-.09-1.75-.1-2.51-.01-.76-.02-1.41-.02-1.96v-1.76c-.13.37-.33.81-.59,1.33-.21.44-.5,1.03-.86,1.74-.37.72-.81,1.57-1.33,2.57l-6.54,11.91-5.91-11.67c-.57-1.15-1.04-2.08-1.39-2.8-.35-.72-.63-1.3-.84-1.74-.24-.5-.41-.89-.51-1.17,0,.47-.01,1.01-.04,1.61-.03.52-.05,1.13-.06,1.82-.01.69-.05,1.46-.1,2.29l-.59,10.89c-.03.21-.03.37-.02.49.01.12.03.2.06.25.03.08.05.12.08.12h-.31c-.08,0-.17,0-.27-.02-.1-.01-.2-.02-.27-.02-.13,0-.24,0-.33.02-.09.01-.19.02-.29.02h-.31s.05-.04.08-.12c.05-.13.09-.38.12-.74l1.29-22.05,8.07,15.71c.29.6.55,1.14.78,1.61.23.47.44.89.63,1.25.18.42.35.78.51,1.1Z"/><path d="M736.31,597.82l8.74,22.6c.13.44.27.73.43.86.08.08.13.12.16.12h-.43c-.13,0-.28,0-.45-.02-.17-.01-.35-.02-.53-.02s-.35,0-.49.02c-.14.01-.28.02-.41.02h-.39s.04-.1.04-.23-.03-.31-.1-.55c-.07-.24-.18-.57-.33-1.02l-1.96-5.21h-9.32l-2.08,5.21c-.18.44-.31.78-.37,1.02-.07.23-.11.42-.14.55-.03.13-.01.21.04.23h-.23c-.08,0-.16,0-.25-.02-.09-.01-.2-.02-.33-.02s-.26,0-.39.02c-.13.01-.25.02-.35.02h-.31l.16-.16c.05-.05.12-.14.2-.27.08-.13.17-.33.27-.59l8.85-22.56ZM737.44,605.77c-.26-.71-.48-1.32-.65-1.84-.17-.52-.32-.97-.45-1.33-.13-.42-.24-.76-.31-1.02-.05.24-.14.55-.27.94-.21.6-.61,1.7-1.21,3.29l-2.86,7.48h8.5l-2.74-7.52ZM731.92,593.51h8.46v1.37h-8.46v-1.37Z"/><path d="M763.57,618.19c0,.84-.03,1.59-.1,2.25-.07.67-.21,1.27-.43,1.8-.22.53-.54,1.01-.96,1.43-.42.42-.98.8-1.68,1.14-.52.24-1.01.42-1.45.55-.44.13-.81.22-1.1.27l-.31-.63c.24-.03.48-.09.74-.2.21-.08.44-.17.69-.27.25-.1.5-.24.76-.39.73-.44,1.24-1.01,1.53-1.68.29-.68.43-1.54.43-2.59v-20.33c0-.23-.03-.4-.08-.51-.03-.05-.05-.08-.08-.08.05.03.13.04.23.04h1.72c.1,0,.18-.01.23-.04-.03,0-.05.03-.08.08-.05.1-.08.27-.08.51v18.65Z"/><path d="M788.25,597.82l8.74,22.6c.13.44.27.73.43.86.08.08.13.12.16.12h-.43c-.13,0-.28,0-.45-.02-.17-.01-.35-.02-.53-.02s-.35,0-.49.02c-.14.01-.28.02-.41.02h-.39s.04-.1.04-.23-.03-.31-.1-.55c-.07-.24-.18-.57-.33-1.02l-1.96-5.21h-9.32l-2.08,5.21c-.18.44-.31.78-.37,1.02-.07.23-.11.42-.14.55-.03.13-.01.21.04.23h-.23c-.08,0-.16,0-.25-.02-.09-.01-.2-.02-.33-.02s-.26,0-.39.02c-.13.01-.25.02-.35.02h-.31l.16-.16c.05-.05.12-.14.2-.27.08-.13.17-.33.27-.59l8.85-22.56ZM789.39,605.77c-.26-.71-.48-1.32-.65-1.84-.17-.52-.32-.97-.45-1.33-.13-.42-.24-.76-.31-1.02-.05.24-.14.55-.27.94-.21.6-.61,1.7-1.21,3.29l-2.86,7.48h8.5l-2.74-7.52Z"/><path d="M822.52,601.27c-.13-.31-.56-.61-1.27-.91-.72-.3-1.63-.46-2.72-.46-1.65,0-2.91.38-3.8,1.15-.89.77-1.33,1.87-1.33,3.3,0,1.07.28,1.92.84,2.54.56.63,1.25,1.14,2.08,1.54s1.71.76,2.66,1.08c.95.31,1.83.71,2.62,1.19.8.48,1.44,1.1,1.92,1.86.48.76.69,1.77.61,3.05-.08,1.23-.38,2.23-.9,3.01-.52.78-1.17,1.39-1.94,1.84-.77.44-1.61.75-2.53.92-.91.17-1.8.25-2.66.25-.68,0-1.29-.05-1.84-.16-.55-.1-1.02-.22-1.41-.35-.47-.13-.89-.3-1.25-.51l.23-1.61c.13.28.59.59,1.37.93.78.34,1.85.52,3.21.52.71,0,1.39-.07,2.06-.21.67-.14,1.27-.38,1.8-.72.53-.34.97-.79,1.31-1.37.34-.57.53-1.29.59-2.15.08-1.15-.12-2.05-.61-2.7-.48-.65-1.12-1.19-1.9-1.6-.78-.42-1.63-.78-2.55-1.09-.91-.31-1.78-.7-2.59-1.15-.81-.46-1.48-1.05-2.02-1.78-.54-.73-.8-1.72-.8-2.97,0-1.12.19-2.07.57-2.83.38-.77.89-1.39,1.55-1.86.65-.47,1.4-.8,2.23-1,.84-.2,1.72-.29,2.66-.29.65,0,1.23.06,1.72.18.5.12.93.24,1.29.37.42.16.77.33,1.06.51l-.27,1.49Z"/><path d="M579.88,483.85h-148.62v-112.55l.43-.32,73.64-55.1,74.55,55.31v112.66ZM433.42,481.69h144.31v-109.42l-72.38-53.7-71.92,53.81v109.31Z"/><path d="M470.36,407.14c-.4,0-.75-.26-.87-.64-1.17-3.77-.93-6.91.73-9.33,2.74-4,8.3-4.44,8.54-4.45.45-.03.87.29.96.74.76,4.2.16,7.56-1.8,9.99-2.81,3.49-7.34,3.68-7.53,3.69-.01,0-.02,0-.03,0ZM478.07,394.64c-1.5.27-4.68,1.1-6.35,3.56-1.22,1.79-1.45,4.15-.69,7.04,1.22-.19,3.8-.84,5.5-2.95,1.47-1.84,1.99-4.41,1.55-7.65Z"/><path d="M461.59,428.25c-.2,0-.4-.07-.57-.2-3.08-2.47-4.64-5.21-4.62-8.13.03-4.85,4.39-8.33,4.58-8.47.37-.29.89-.25,1.21.08,2.98,3.05,4.37,6.17,4.11,9.28-.37,4.46-4.02,7.16-4.17,7.27-.16.12-.35.17-.53.17ZM461.48,413.42c-1.09,1.06-3.26,3.53-3.27,6.51,0,2.16,1.12,4.25,3.37,6.22.91-.84,2.68-2.82,2.9-5.52.19-2.35-.82-4.77-3-7.21Z"/><path d="M465.83,446.14c-1.45,0-2.48-.26-2.57-.28-.4-.1-.67-.46-.68-.87-.04-3.95,1.09-6.89,3.37-8.73,3.77-3.05,9.23-1.87,9.46-1.82.45.1.75.53.7.99-.47,4.24-2.01,7.29-4.58,9.05-1.94,1.34-4.09,1.66-5.7,1.66ZM464.41,444.23c1.23.17,3.88.29,6.11-1.25,1.94-1.34,3.17-3.65,3.68-6.89-1.51-.18-4.79-.28-7.11,1.59-1.68,1.36-2.58,3.56-2.68,6.55Z"/><path d="M556.68,451.99c-3.71,0-6.57-1.03-8.54-3.07-3.1-3.22-2.73-7.74-2.71-7.93.04-.41.34-.74.75-.81,3.89-.69,6.97-.05,9.16,1.9,3.63,3.22,3.36,8.8,3.34,9.03-.03.46-.4.83-.86.86-.39.02-.77.03-1.14.03ZM557.77,451.05h0,0ZM557.77,451.05h0,0ZM547.23,441.85c.04,1.24.35,3.88,2.23,5.82,1.64,1.69,4.13,2.53,7.4,2.5-.07-1.52-.5-4.78-2.73-6.75-1.62-1.43-3.94-1.96-6.9-1.57Z"/><path d="M534.5,430.19c-.06,0-.12,0-.18-.02-3.87-.79-6.5-2.52-7.82-5.13-2.19-4.33.11-9.41.21-9.63.19-.42.67-.63,1.11-.48,4.05,1.35,6.7,3.5,7.88,6.39,1.7,4.14-.31,8.2-.4,8.37-.16.31-.47.5-.81.5ZM528.06,416.95c-.49,1.44-1.29,4.63.06,7.28.98,1.93,2.94,3.27,5.83,4,.42-1.17,1.1-3.74.07-6.24-.9-2.18-2.9-3.87-5.96-5.05Z"/><path d="M512.92,405.39c-.23,0-.45-.08-.62-.25-2.87-2.71-4.2-5.56-3.95-8.48.42-4.83,5.05-7.94,5.25-8.07.39-.25.9-.18,1.2.18,2.73,3.28,3.85,6.51,3.34,9.58-.73,4.42-4.58,6.81-4.75,6.91-.15.09-.31.13-.47.13ZM513.94,390.61c-1.17.97-3.53,3.26-3.78,6.23-.18,2.16.78,4.33,2.86,6.47.97-.77,2.9-2.6,3.34-5.27.38-2.33-.43-4.82-2.41-7.43Z"/><path d="M532.29,397.76c-2.84,0-5.05-1.2-5.17-1.27-.36-.2-.54-.61-.44-1.01.94-3.84,2.77-6.4,5.43-7.62,4.41-2.02,9.4.47,9.61.58.41.21.6.7.44,1.13-1.51,3.99-3.76,6.56-6.68,7.64-1.1.4-2.18.55-3.18.55ZM528.63,395.2c1.15.47,3.69,1.24,6.23.3,2.21-.82,3.98-2.75,5.27-5.76-1.42-.54-4.58-1.46-7.28-.22-1.97.9-3.38,2.81-4.22,5.68Z"/><path d="M485.1,421.01c-1.36,0-2.61-.29-3.77-.87-4.33-2.18-5.5-7.64-5.55-7.87-.09-.45.17-.9.61-1.05,4.06-1.31,7.47-1.16,10.14.46,3.83,2.32,4.62,6.78,4.65,6.97.07.4-.14.8-.51.97-2,.93-3.86,1.39-5.57,1.39ZM477.78,412.69c.46,1.45,1.71,4.49,4.37,5.83,1.93.97,4.31.89,7.07-.25-.35-1.19-1.33-3.66-3.65-5.06-2.02-1.22-4.64-1.39-7.79-.52ZM476.67,412.08h0,0Z"/><path d="M504.65,483.47c-.5,0-.91-.41-.91-.91v-95.7c0-.5.41-.91.91-.91s.91.41.91.91v95.7c0,.5-.41.91-.91.91Z"/><path d="M503.87,442.58c-.07,0-.14,0-.21-.03-23.53-5.61-35.39-30.9-38.47-38.51-.05-.13-.09-.22-.11-.26-.2-.45,0-.99.44-1.2.45-.21.98-.02,1.2.43.02.04.07.16.15.36,2.49,6.18,6.04,12.5,9.97,17.82,7.84,10.57,17,17.17,27.23,19.61.49.12.79.61.67,1.09-.1.42-.47.7-.88.7Z"/><path d="M494.57,438.61h0c-.5,0-.91-.41-.91-.91,0-10.52-1.69-19.18-3.11-24.6-1.54-5.87-3.11-9.3-3.13-9.34-.21-.45-.01-.99.44-1.2.46-.21.99-.01,1.2.44.07.14,1.64,3.57,3.22,9.58,1.46,5.53,3.19,14.37,3.19,25.11,0,.5-.41.91-.91.91Z"/><path d="M476.2,433.63c-5.99,0-14.38-1.35-23.32-7.01-.42-.27-.55-.83-.28-1.25.27-.42.83-.55,1.25-.28,8.38,5.3,16.3,6.56,21.46,6.69,5.61.13,9.28-1.01,9.32-1.02.48-.15.99.11,1.14.59.15.48-.11.99-.59,1.14-.29.09-3.71,1.14-8.98,1.14Z"/><path d="M507.06,449.95c-.44,0-.83-.33-.9-.78-.07-.5.27-.96.77-1.03.08-.01,8.53-1.29,17-6.2,11.25-6.53,17.21-16.05,17.72-28.3.02-.5.44-.9.94-.87.5.02.89.44.87.94-.53,12.75-6.99,23.06-18.67,29.82-8.77,5.07-17.24,6.35-17.6,6.4-.04,0-.09,0-.13,0Z"/><path d="M519.15,446.32c-.3,0-.59-.14-.76-.41-11.52-17.6,1.16-31.36,1.28-31.5.34-.36.92-.38,1.28-.04.36.34.38.92.04,1.28h0c-.49.52-11.8,12.88-1.09,29.26.27.42.16.98-.26,1.26-.15.1-.33.15-.5.15Z"/><path d="M535.85,442.22c-4.38,0-7.51-.8-7.58-.82-.48-.13-.77-.62-.64-1.11.13-.48.62-.77,1.11-.65.18.05,17.95,4.54,27.39-8.81.29-.41.86-.51,1.26-.22.41.29.51.86.22,1.26-6.07,8.59-15.27,10.33-21.75,10.33Z"/><path d="M509.43,408.17c-2.69,0-4.66-.46-4.84-.5-.49-.12-.79-.61-.67-1.09.12-.49.6-.79,1.09-.67.09.02,8.75,2.02,14.31-2.75,3.72-3.19,5.29-8.7,4.66-16.37-.04-.5.33-.94.83-.98.5-.04.94.33.98.83.68,8.29-1.11,14.31-5.3,17.9-3.45,2.95-7.79,3.63-11.07,3.63Z"/></svg>