<svg width="32" height="32" viewBox="0 0 32 32" fill="none" xmlns="http://www.w3.org/2000/svg">
<path d="M20.667 6.33301L20.6671 5.58301H20.667V6.33301ZM23 8.66699L23.75 8.66709V8.66699H23ZM22.9678 9.03125L22.2269 8.9148C22.1896 9.1517 22.2679 9.39213 22.4375 9.56167C22.6071 9.73122 22.8476 9.80943 23.0845 9.77211L22.9678 9.03125ZM23.333 9V8.25H23.3329L23.333 9ZM25.667 11.333H26.417V11.3329L25.667 11.333ZM23.333 13.667L23.3329 14.417H23.333V13.667ZM21.5918 12.8818L22.1522 12.3834C22.0149 12.2291 21.8201 12.1382 21.6137 12.1322C21.4073 12.1261 21.2075 12.2055 21.0615 12.3515L21.5918 12.8818ZM12.8818 21.5918L12.3515 21.0615C12.2055 21.2075 12.1261 21.4073 12.1322 21.6137C12.1382 21.8201 12.2291 22.0149 12.3834 22.1522L12.8818 21.5918ZM13.667 23.333H14.417V23.3329L13.667 23.333ZM11.333 25.667L11.3329 26.417H11.333V25.667ZM9 23.333L8.25 23.3329V23.333H9ZM9.03125 22.9678L9.77211 23.0845C9.80943 22.8476 9.73122 22.6071 9.56167 22.4375C9.39213 22.2679 9.1517 22.1896 8.9148 22.2269L9.03125 22.9678ZM8.66699 23V23.75H8.66709L8.66699 23ZM6.33301 20.667H5.58301V20.6671L6.33301 20.667ZM8.66699 18.333L8.66709 17.583H8.66699V18.333ZM10.4072 19.1172L9.84713 19.616C9.98443 19.7701 10.1792 19.8609 10.3855 19.8669C10.5919 19.8728 10.7916 19.7935 10.9376 19.6475L10.4072 19.1172ZM19.1172 10.4072L19.6475 10.9376C19.7935 10.7916 19.8728 10.5919 19.8669 10.3855C19.8609 10.1792 19.7701 9.98443 19.616 9.84713L19.1172 10.4072ZM18.333 8.66699H17.583V8.66709L18.333 8.66699ZM20.667 6.33301L20.6669 7.08301C21.541 7.08313 22.25 7.79234 22.25 8.66699H23H23.75C23.75 6.96453 22.3701 5.58324 20.6671 5.58301L20.667 6.33301ZM23 8.66699L22.25 8.66689C22.25 8.7377 22.2422 8.817 22.2269 8.9148L22.9678 9.03125L23.7087 9.1477C23.7307 9.00774 23.75 8.84453 23.75 8.66709L23 8.66699ZM22.9678 9.03125L23.0845 9.77211C23.1771 9.75752 23.2583 9.75001 23.3331 9.75L23.333 9L23.3329 8.25C23.1589 8.25002 22.9967 8.26744 22.8511 8.29039L22.9678 9.03125ZM23.333 9V9.75C24.2077 9.75 24.9169 10.459 24.917 11.3331L25.667 11.333L26.417 11.3329C26.4168 9.62995 25.0355 8.25 23.333 8.25V9ZM25.667 11.333H24.917C24.917 12.2075 24.2075 12.917 23.333 12.917V13.667V14.417C25.0359 14.417 26.417 13.0359 26.417 11.333H25.667ZM23.333 13.667L23.3331 12.917C22.8651 12.9169 22.4448 12.7124 22.1522 12.3834L21.5918 12.8818L21.0314 13.3803C21.5934 14.0121 22.4142 14.4169 23.3329 14.417L23.333 13.667ZM21.5918 12.8818L21.0615 12.3515L12.3515 21.0615L12.8818 21.5918L13.4122 22.1221L22.1221 13.4122L21.5918 12.8818ZM12.8818 21.5918L12.3834 22.1522C12.7124 22.4448 12.9169 22.8651 12.917 23.3331L13.667 23.333L14.417 23.3329C14.4169 22.4142 14.0121 21.5934 13.3803 21.0314L12.8818 21.5918ZM13.667 23.333H12.917C12.917 24.2075 12.2075 24.917 11.333 24.917V25.667V26.417C13.0359 26.417 14.417 25.0359 14.417 23.333H13.667ZM11.333 25.667L11.3331 24.917C10.459 24.9169 9.75 24.2077 9.75 23.333H9H8.25C8.25 25.0355 9.62995 26.4168 11.3329 26.417L11.333 25.667ZM9 23.333L9.75 23.3331C9.75001 23.2583 9.75752 23.1771 9.77211 23.0845L9.03125 22.9678L8.29039 22.8511C8.26744 22.9967 8.25002 23.1589 8.25 23.3329L9 23.333ZM9.03125 22.9678L8.9148 22.2269C8.817 22.2422 8.7377 22.25 8.66689 22.25L8.66699 23L8.66709 23.75C8.84453 23.75 9.00774 23.7307 9.1477 23.7087L9.03125 22.9678ZM8.66699 23V22.25C7.79234 22.25 7.08313 21.541 7.08301 20.6669L6.33301 20.667L5.58301 20.6671C5.58324 22.3701 6.96453 23.75 8.66699 23.75V23ZM6.33301 20.667H7.08301C7.08301 19.7925 7.79254 19.083 8.66699 19.083V18.333V17.583C6.96411 17.583 5.58301 18.9641 5.58301 20.667H6.33301ZM8.66699 18.333L8.66689 19.083C9.13454 19.0831 9.55446 19.2873 9.84713 19.616L10.4072 19.1172L10.9673 18.6184C10.4054 17.9874 9.58519 17.5831 8.66709 17.583L8.66699 18.333ZM10.4072 19.1172L10.9376 19.6475L19.6475 10.9376L19.1172 10.4072L18.5869 9.8769L9.8769 18.5869L10.4072 19.1172ZM19.1172 10.4072L19.616 9.84713C19.2873 9.55446 19.0831 9.13454 19.083 8.66689L18.333 8.66699L17.583 8.66709C17.5831 9.58519 17.9874 10.4054 18.6184 10.9673L19.1172 10.4072ZM18.333 8.66699H19.083C19.083 7.79254 19.7925 7.08301 20.667 7.08301V6.33301V5.58301C18.9641 5.58301 17.583 6.96411 17.583 8.66699H18.333Z" fill="#141414"/>
</svg>
