<svg width="63" height="63" viewBox="0 0 63 63" fill="none" xmlns="http://www.w3.org/2000/svg">
<path d="M59.0231 24.4181C57.9628 23.31 56.8659 22.1681 56.4525 21.1641C56.07 20.2444 56.0475 18.72 56.025 17.2434C55.9828 14.4984 55.9378 11.3878 53.775 9.225C51.6122 7.06219 48.5016 7.01719 45.7566 6.975C44.28 6.9525 42.7556 6.93 41.8359 6.5475C40.8347 6.13406 39.69 5.03719 38.5819 3.97687C36.6412 2.11219 34.4362 0 31.5 0C28.5637 0 26.3616 2.11219 24.4181 3.97687C23.31 5.03719 22.1681 6.13406 21.1641 6.5475C20.25 6.93 18.72 6.9525 17.2434 6.975C14.4984 7.01719 11.3878 7.06219 9.225 9.225C7.06219 11.3878 7.03125 14.4984 6.975 17.2434C6.9525 18.72 6.93 20.2444 6.5475 21.1641C6.13406 22.1653 5.03719 23.31 3.97687 24.4181C2.11219 26.3587 0 28.5637 0 31.5C0 34.4362 2.11219 36.6384 3.97687 38.5819C5.03719 39.69 6.13406 40.8319 6.5475 41.8359C6.93 42.7556 6.9525 44.28 6.975 45.7566C7.01719 48.5016 7.06219 51.6122 9.225 53.775C11.3878 55.9378 14.4984 55.9828 17.2434 56.025C18.72 56.0475 20.2444 56.07 21.1641 56.4525C22.1653 56.8659 23.31 57.9628 24.4181 59.0231C26.3587 60.8878 28.5637 63 31.5 63C34.4362 63 36.6384 60.8878 38.5819 59.0231C39.69 57.9628 40.8319 56.8659 41.8359 56.4525C42.7556 56.07 44.28 56.0475 45.7566 56.025C48.5016 55.9828 51.6122 55.9378 53.775 53.775C55.9378 51.6122 55.9828 48.5016 56.025 45.7566C56.0475 44.28 56.07 42.7556 56.4525 41.8359C56.8659 40.8347 57.9628 39.69 59.0231 38.5819C60.8878 36.6412 63 34.4362 63 31.5C63 28.5637 60.8878 26.3616 59.0231 24.4181ZM55.7747 35.4684C54.4275 36.8747 53.0325 38.3288 52.2928 40.1147C51.5841 41.8303 51.5531 43.7906 51.525 45.6891C51.4969 47.6578 51.4659 49.7194 50.5913 50.5913C49.7166 51.4631 47.6691 51.4969 45.6891 51.525C43.7906 51.5531 41.8303 51.5841 40.1147 52.2928C38.3288 53.0325 36.8747 54.4275 35.4684 55.7747C34.0622 57.1219 32.625 58.5 31.5 58.5C30.375 58.5 28.9266 57.1162 27.5316 55.7747C26.1366 54.4331 24.6713 53.0325 22.8853 52.2928C21.1697 51.5841 19.2094 51.5531 17.3109 51.525C15.3422 51.4969 13.2806 51.4659 12.4087 50.5913C11.5369 49.7166 11.5031 47.6691 11.475 45.6891C11.4469 43.7906 11.4159 41.8303 10.7072 40.1147C9.9675 38.3288 8.5725 36.8747 7.22531 35.4684C5.87812 34.0622 4.5 32.625 4.5 31.5C4.5 30.375 5.88375 28.9266 7.22531 27.5316C8.56687 26.1366 9.9675 24.6713 10.7072 22.8853C11.4159 21.1697 11.4469 19.2094 11.475 17.3109C11.5031 15.3422 11.5341 13.2806 12.4087 12.4087C13.2834 11.5369 15.3309 11.5031 17.3109 11.475C19.2094 11.4469 21.1697 11.4159 22.8853 10.7072C24.6713 9.9675 26.1253 8.5725 27.5316 7.22531C28.9378 5.87812 30.375 4.5 31.5 4.5C32.625 4.5 34.0734 5.88375 35.4684 7.22531C36.8634 8.56687 38.3288 9.9675 40.1147 10.7072C41.8303 11.4159 43.7906 11.4469 45.6891 11.475C47.6578 11.5031 49.7194 11.5341 50.5913 12.4087C51.4631 13.2834 51.4969 15.3309 51.525 17.3109C51.5531 19.2094 51.5841 21.1697 52.2928 22.8853C53.0325 24.6713 54.4275 26.1253 55.7747 27.5316C57.1219 28.9378 58.5 30.375 58.5 31.5C58.5 32.625 57.1162 34.0734 55.7747 35.4684ZM44.3419 23.1581C44.5511 23.3671 44.717 23.6152 44.8303 23.8884C44.9435 24.1615 45.0018 24.4543 45.0018 24.75C45.0018 25.0457 44.9435 25.3385 44.8303 25.6116C44.717 25.8848 44.5511 26.1329 44.3419 26.3419L28.5919 42.0919C28.3829 42.3011 28.1348 42.467 27.8616 42.5803C27.5885 42.6935 27.2957 42.7518 27 42.7518C26.7043 42.7518 26.4115 42.6935 26.1384 42.5803C25.8652 42.467 25.6171 42.3011 25.4081 42.0919L18.6581 35.3419C18.2359 34.9197 17.9987 34.3471 17.9987 33.75C17.9987 33.1529 18.2359 32.5803 18.6581 32.1581C19.0803 31.7359 19.6529 31.4987 20.25 31.4987C20.8471 31.4987 21.4197 31.7359 21.8419 32.1581L27 37.3191L41.1581 23.1581C41.3671 22.9489 41.6152 22.783 41.8884 22.6697C42.1615 22.5565 42.4543 22.4982 42.75 22.4982C43.0457 22.4982 43.3385 22.5565 43.6116 22.6697C43.8848 22.783 44.1329 22.9489 44.3419 23.1581Z" fill="white"/>
</svg>
