<svg width="59" height="59" viewBox="0 0 59 59" fill="none" xmlns="http://www.w3.org/2000/svg">
<path d="M29.5 0C23.6655 0 17.9619 1.73014 13.1107 4.97165C8.25944 8.21315 4.47835 12.8204 2.24557 18.2108C0.0127819 23.6013 -0.571416 29.5327 0.566847 35.2552C1.70511 40.9776 4.51471 46.234 8.64036 50.3596C12.766 54.4853 18.0224 57.2949 23.7448 58.4332C29.4673 59.5714 35.3987 58.9872 40.7892 56.7544C46.1796 54.5216 50.7869 50.7406 54.0284 45.8893C57.2699 41.0381 59 35.3345 59 29.5C58.9917 21.6786 55.8811 14.18 50.3505 8.64947C44.82 3.11894 37.3214 0.00825948 29.5 0ZM29.5 54.4615C24.5631 54.4615 19.737 52.9976 15.6321 50.2548C11.5272 47.5119 8.32784 43.6135 6.43856 39.0524C4.54928 34.4912 4.05496 29.4723 5.0181 24.6302C5.98125 19.7882 8.35861 15.3405 11.8495 11.8495C15.3405 8.35859 19.7882 5.98124 24.6303 5.01809C29.4723 4.05494 34.4913 4.54926 39.0524 6.43854C43.6135 8.32782 47.512 11.5272 50.2548 15.6321C52.9976 19.737 54.4615 24.5631 54.4615 29.5C54.454 36.1179 51.8218 42.4626 47.1422 47.1422C42.4626 51.8217 36.1179 54.454 29.5 54.4615ZM15.8846 23.8269C15.8846 23.1537 16.0843 22.4956 16.4583 21.9358C16.8323 21.3761 17.3639 20.9398 17.9859 20.6822C18.6078 20.4245 19.2922 20.3571 19.9525 20.4885C20.6128 20.6198 21.2193 20.944 21.6954 21.42C22.1714 21.8961 22.4956 22.5026 22.6269 23.1629C22.7583 23.8231 22.6908 24.5075 22.4332 25.1295C22.1756 25.7515 21.7393 26.2831 21.1795 26.6571C20.6198 27.0311 19.9617 27.2308 19.2885 27.2308C18.3857 27.2308 17.5199 26.8721 16.8816 26.2338C16.2432 25.5955 15.8846 24.7297 15.8846 23.8269ZM43.1154 23.8269C43.1154 24.5001 42.9158 25.1582 42.5417 25.718C42.1677 26.2778 41.6361 26.714 41.0141 26.9717C40.3922 27.2293 39.7078 27.2967 39.0475 27.1654C38.3872 27.034 37.7807 26.7098 37.3047 26.2338C36.8286 25.7578 36.5044 25.1513 36.3731 24.491C36.2418 23.8307 36.3092 23.1463 36.5668 22.5243C36.8244 21.9024 37.2607 21.3707 37.8205 20.9967C38.3802 20.6227 39.0383 20.4231 39.7115 20.4231C40.6143 20.4231 41.4801 20.7817 42.1184 21.42C42.7568 22.0584 43.1154 22.9242 43.1154 23.8269ZM42.8119 37.4423C39.8931 42.4885 35.0398 45.3846 29.5 45.3846C23.9602 45.3846 19.1098 42.4913 16.191 37.4423C16.0268 37.184 15.9165 36.8952 15.8669 36.5932C15.8172 36.2912 15.8291 35.9823 15.9019 35.685C15.9748 35.3878 16.1069 35.1083 16.2906 34.8635C16.4742 34.6186 16.7054 34.4134 16.9704 34.2603C17.2354 34.1071 17.5286 34.0091 17.8324 33.9722C18.1362 33.9353 18.4443 33.9603 18.7383 34.0455C19.0322 34.1308 19.3058 34.2747 19.5427 34.4684C19.7796 34.6622 19.9749 34.9019 20.1167 35.1731C22.2356 38.835 25.5657 40.8461 29.5 40.8461C33.4343 40.8461 36.7644 38.8322 38.8804 35.1731C39.1814 34.6517 39.6771 34.2713 40.2585 34.1154C40.8399 33.9596 41.4594 34.041 41.9808 34.342C42.5021 34.6429 42.8826 35.1386 43.0384 35.72C43.1943 36.3014 43.1128 36.921 42.8119 37.4423Z" fill="white"/>
</svg>
