<svg width="71" height="71" viewBox="0 0 71 71" fill="none" xmlns="http://www.w3.org/2000/svg">
<path d="M55.4688 62.125H41.7513C44.0556 60.0675 46.2287 57.8675 48.2578 55.5381C55.8709 46.7823 59.9062 37.5523 59.9062 28.8438C59.9062 22.3708 57.3349 16.163 52.7578 11.5859C48.1808 7.00887 41.9729 4.4375 35.5 4.4375C29.0271 4.4375 22.8192 7.00887 18.2422 11.5859C13.6651 16.163 11.0938 22.3708 11.0938 28.8438C11.0938 37.5523 15.118 46.7823 22.7422 55.5381C24.7713 57.8675 26.9444 60.0675 29.2487 62.125H15.5312C14.9428 62.125 14.3785 62.3588 13.9624 62.7749C13.5463 63.191 13.3125 63.7553 13.3125 64.3438C13.3125 64.9322 13.5463 65.4965 13.9624 65.9126C14.3785 66.3287 14.9428 66.5625 15.5312 66.5625H55.4688C56.0572 66.5625 56.6215 66.3287 57.0376 65.9126C57.4537 65.4965 57.6875 64.9322 57.6875 64.3438C57.6875 63.7553 57.4537 63.191 57.0376 62.7749C56.6215 62.3588 56.0572 62.125 55.4688 62.125ZM15.5312 28.8438C15.5312 23.5477 17.6351 18.4686 21.38 14.7237C25.1248 10.9788 30.204 8.875 35.5 8.875C40.796 8.875 45.8752 10.9788 49.62 14.7237C53.3649 18.4686 55.4688 23.5477 55.4688 28.8438C55.4688 44.7161 40.0845 57.9648 35.5 61.5703C30.9155 57.9648 15.5312 44.7161 15.5312 28.8438ZM46.5938 28.8438C46.5938 26.6496 45.9431 24.5048 44.7241 22.6804C43.5051 20.856 41.7725 19.4341 39.7454 18.5945C37.7183 17.7548 35.4877 17.5351 33.3357 17.9632C31.1837 18.3912 29.207 19.4478 27.6555 20.9993C26.104 22.5508 25.0475 24.5275 24.6194 26.6795C24.1914 28.8314 24.4111 31.062 25.2507 33.0891C26.0904 35.1163 27.5123 36.8489 29.3366 38.0679C31.161 39.2869 33.3059 39.9375 35.5 39.9375C38.4422 39.9375 41.264 38.7687 43.3445 36.6882C45.4249 34.6077 46.5938 31.786 46.5938 28.8438ZM28.8438 28.8438C28.8438 27.5273 29.2341 26.2404 29.9655 25.1457C30.6969 24.0511 31.7365 23.198 32.9528 22.6942C34.169 22.1904 35.5074 22.0586 36.7986 22.3154C38.0898 22.5722 39.2758 23.2062 40.2067 24.1371C41.1376 25.068 41.7715 26.254 42.0284 27.5452C42.2852 28.8364 42.1534 30.1747 41.6496 31.391C41.1458 32.6073 40.2926 33.6468 39.198 34.3782C38.1034 35.1096 36.8165 35.5 35.5 35.5C33.7347 35.5 32.0416 34.7987 30.7933 33.5504C29.545 32.3021 28.8438 30.6091 28.8438 28.8438Z" fill="white"/>
</svg>
