<svg width="32" height="32" viewBox="0 0 32 32" fill="none" xmlns="http://www.w3.org/2000/svg">
<path d="M28.9231 7.77778C27.2099 7.77594 25.5674 7.07297 24.356 5.82313C23.1447 4.57328 22.4633 2.87866 22.4615 1.11111C22.4615 0.816426 22.3481 0.533811 22.1461 0.325437C21.9442 0.117063 21.6702 0 21.3846 0H16C15.7144 0 15.4405 0.117063 15.2385 0.325437C15.0365 0.533811 14.9231 0.816426 14.9231 1.11111V19.4444C14.9229 19.9415 14.7934 20.4294 14.5481 20.8572C14.3029 21.2851 13.9508 21.6372 13.5288 21.8768C13.1067 22.1164 12.63 22.2348 12.1485 22.2197C11.6669 22.2045 11.1982 22.0562 10.7911 21.7904C10.384 21.5246 10.0534 21.151 9.834 20.7085C9.61455 20.266 9.5142 19.7708 9.54342 19.2747C9.57264 18.7785 9.73036 18.2996 10.0001 17.8878C10.2699 17.4759 10.6418 17.1463 11.0771 16.9333C11.2612 16.8432 11.4168 16.701 11.5257 16.5232C11.6346 16.3454 11.6924 16.1395 11.6923 15.9292V10C11.6924 9.83758 11.6579 9.67712 11.5914 9.52993C11.5249 9.38273 11.4279 9.25237 11.3072 9.14802C11.1866 9.04368 11.0452 8.9679 10.8932 8.92601C10.7411 8.88411 10.5819 8.87713 10.4269 8.90556C5.6225 9.78889 2 14.3194 2 19.4444C2 22.244 3.07788 24.9288 4.99652 26.9083C6.91516 28.8879 9.5174 30 12.2308 30C14.9441 30 17.5464 28.8879 19.465 26.9083C21.3837 24.9288 22.4615 22.244 22.4615 19.4444V13.9292C24.4561 15.0028 26.6734 15.5609 28.9231 15.5556C29.2087 15.5556 29.4826 15.4385 29.6846 15.2301C29.8865 15.0217 30 14.7391 30 14.4444V8.88889C30 8.5942 29.8865 8.31159 29.6846 8.10322C29.4826 7.89484 29.2087 7.77778 28.9231 7.77778ZM27.8462 13.2833C25.7416 13.0909 23.7265 12.316 22.0133 11.0403C21.8522 10.9208 21.6624 10.8496 21.4646 10.8344C21.2668 10.8192 21.0688 10.8606 20.8924 10.9541C20.716 11.0477 20.5681 11.1896 20.4649 11.3643C20.3617 11.5391 20.3073 11.7398 20.3077 11.9444V19.4444C20.3077 21.6546 19.4567 23.7742 17.942 25.337C16.4273 26.8998 14.3729 27.7778 12.2308 27.7778C10.0886 27.7778 8.03424 26.8998 6.51952 25.337C5.00481 23.7742 4.15385 21.6546 4.15385 19.4444C4.15385 15.8472 6.39385 12.6208 9.53846 11.4444V15.2875C8.8423 15.7674 8.27852 16.4252 7.90208 17.1968C7.52563 17.9684 7.34937 18.8275 7.39046 19.6903C7.43155 20.5531 7.68859 21.3902 8.13654 22.12C8.58449 22.8498 9.20805 23.4474 9.94646 23.8546C10.6849 24.2618 11.5129 24.4646 12.3499 24.4434C13.1869 24.4221 14.0043 24.1775 14.7225 23.7334C15.4406 23.2892 16.0349 22.6607 16.4475 21.9091C16.8602 21.1574 17.077 20.3083 17.0769 19.4444V2.22222H20.375C20.6172 4.17928 21.4822 5.99802 22.8344 7.3931C24.1865 8.78819 25.9493 9.68068 27.8462 9.93056V13.2833Z" fill="#272728"/>
</svg>
