<svg width="58" height="34" viewBox="0 0 58 34" fill="none" xmlns="http://www.w3.org/2000/svg">
<path d="M57.3709 24.6689C57.7796 25.1625 57.9774 25.799 57.9209 26.4391C57.8644 27.0792 57.5582 27.6706 57.0695 28.0838C51.836 32.4489 47.1633 34 42.9006 34C37.2993 34 32.4035 31.3257 27.8484 28.8397C20.2062 24.6659 13.6072 21.0597 4.01151 29.0643C3.76965 29.2802 3.48717 29.4449 3.18084 29.5487C2.87452 29.6525 2.5506 29.6932 2.22833 29.6684C1.90607 29.6437 1.59203 29.554 1.30488 29.4046C1.01772 29.2553 0.763315 29.0493 0.556764 28.799C0.350214 28.5487 0.195735 28.2591 0.102508 27.9475C0.00928164 27.6359 -0.0207915 27.3087 0.0140744 26.9851C0.0489404 26.6616 0.148034 26.3484 0.30547 26.0642C0.462905 25.78 0.675469 25.5305 0.930533 25.3306C13.0404 15.2316 22.1296 20.1946 30.1516 24.5778C37.7938 28.7516 44.3928 32.3548 53.9885 24.3502C54.48 23.9433 55.1113 23.7484 55.7449 23.8081C56.3785 23.8678 56.9629 24.1772 57.3709 24.6689ZM4.01151 9.65538C13.6072 1.6508 20.2062 5.25392 27.8484 9.42772C32.4035 11.9168 37.2993 14.5881 42.9006 14.5881C47.1633 14.5881 51.836 13.0369 57.0695 8.67188C57.3245 8.47201 57.5371 8.22256 57.6945 7.93834C57.852 7.65413 57.9511 7.34095 57.9859 7.01741C58.0208 6.69388 57.9907 6.36659 57.8975 6.05498C57.8043 5.74338 57.6498 5.45383 57.4432 5.20352C57.2367 4.95321 56.9823 4.74726 56.6951 4.59791C56.408 4.44855 56.0939 4.35883 55.7717 4.33409C55.4494 4.30934 55.1255 4.35007 54.8192 4.45385C54.5128 4.55764 54.2303 4.72236 53.9885 4.93823C44.3928 12.9428 37.7938 9.33665 30.1516 5.16286C22.1296 0.782647 13.0404 -4.18341 0.930533 5.91566C0.477644 6.33677 0.202098 6.91652 0.160494 7.53582C0.118889 8.15512 0.314385 8.76695 0.706824 9.24564C1.09926 9.72433 1.65885 10.0335 2.27064 10.1097C2.88244 10.1859 3.49999 10.0234 3.99644 9.65538H4.01151Z" fill="white"/>
</svg>
