<svg width="32" height="32" viewBox="0 0 32 32" fill="none" xmlns="http://www.w3.org/2000/svg">
<path d="M16.6663 23.9999C16.6663 24.3681 16.3679 24.6666 15.9997 24.6666C15.6315 24.6666 15.333 24.3681 15.333 23.9999C15.333 23.6317 15.6315 23.3333 15.9997 23.3333C16.3679 23.3333 16.6663 23.6317 16.6663 23.9999Z" stroke="black"/>
<path d="M12.667 19.4169C13.6024 18.7353 14.7544 18.3333 16.0003 18.3333C17.2462 18.3333 18.3983 18.7353 19.3337 19.4169" stroke="black" stroke-width="1.5" stroke-linecap="round" stroke-linejoin="round"/>
<path d="M22.2837 14.9701C20.5024 13.7282 18.3364 13 16.0003 13C13.6641 13 11.4981 13.7282 9.7168 14.9701" stroke="black" stroke-width="1.5" stroke-linecap="round" stroke-linejoin="round"/>
<path d="M6.66699 10.5944C9.3126 8.74898 12.5301 7.66675 16.0003 7.66675C19.4706 7.66675 22.688 8.74898 25.3337 10.5944" stroke="black" stroke-width="1.5" stroke-linecap="round" stroke-linejoin="round"/>
</svg>
